<svg id="Layer_1" data-name="Layer 1" xmlns="http://www.w3.org/2000/svg" viewBox="0 0 122.88 122.31"><defs><style>.cls-1{fill:#1ca1f1;}.cls-1,.cls-2{fill-rule:evenodd;}.cls-2{fill:#fff;}</style></defs><title>twitter-app</title><path class="cls-1" d="M27.75,0H95.13a27.83,27.83,0,0,1,27.75,27.75V94.57a27.83,27.83,0,0,1-27.75,27.74H27.75A27.83,27.83,0,0,1,0,94.57V27.75A27.83,27.83,0,0,1,27.75,0Z"/><path class="cls-2" d="M102.55,35.66a33.3,33.3,0,0,1-9.68,2.65A17,17,0,0,0,100.29,29a34.05,34.05,0,0,1-10.71,4.1A16.87,16.87,0,0,0,60.41,44.62a17.45,17.45,0,0,0,.43,3.84A47.86,47.86,0,0,1,26.09,30.83a16.83,16.83,0,0,0-2.29,8.48h0a16.84,16.84,0,0,0,7.5,14,17,17,0,0,1-7.64-2.11v.22A16.86,16.86,0,0,0,37.19,68a17.19,17.19,0,0,1-4.45.6,17.58,17.58,0,0,1-3.18-.31A16.9,16.9,0,0,0,45.31,80a34,34,0,0,1-25,7,47.69,47.69,0,0,0,25.86,7.58c31,0,48-25.7,48-48,0-.74,0-1.46-.05-2.19a33.82,33.82,0,0,0,8.41-8.71Z"/></svg>