<svg width="24" height="36" viewBox="0 0 24 36" fill="none" xmlns="http://www.w3.org/2000/svg">
  <style>@media (prefers-color-scheme:dark){path{fill:#fff}}</style>
  <path
    d="M17.88 15.96L16.32 3.6C16.32 2.4 16.88 1.8 18 1.8C19.12 1.8 19.76 2.4 19.92 3.6C20.84 10.04 21.38 14.02 21.54 15.54C21.74 17.02 22.06 18.84 22.5 21C23.5 25.88 24 29.4 24 31.56C24 32.76 23.4 33.36 22.2 33.36C21 33.36 20.4 32.76 20.4 31.56C20.4 29.72 20.24 28.08 19.92 26.64C19.64 25.16 19.38 23.86 19.14 22.74C18.94 21.62 18.8 20.9 18.72 20.58C16.8 22.06 13.78 22.8 9.66 22.8C10.02 25.96 10.2 28.28 10.2 29.76C10.2 33.36 8.6 35.16 5.4 35.16C3.44 35.16 2.04 33.96 1.2 31.56C0.4 29.4 0 27.08 0 24.6C0 22.84 0.64 21.5 1.92 20.58C3.24 19.66 4.5 19.2 5.7 19.2C4.7 10.44 4.2 4.64 4.2 1.8C4.2 0.599999 4.8 0 6 0C7.2 0 7.8 0.64 7.8 1.92C7.8 3.2 7.88 4.84 8.04 6.84C8.2 9.2 8.52 12.44 9 16.56L9.36 19.2C11.92 19.2 13.98 18.88 15.54 18.24C17.1 17.6 17.88 16.84 17.88 15.96ZM3.6 24.96C3.6 25.76 3.76 27.06 4.08 28.86C4.44 30.66 4.88 31.56 5.4 31.56C5.96 31.56 6.3 31.44 6.42 31.2C6.54 30.96 6.6 30.48 6.6 29.76L6 22.8C5.36 22.8 4.8 22.96 4.32 23.28C3.84 23.6 3.6 24.16 3.6 24.96Z"
    fill="#fff" />
</svg>
