<?xml version="1.0" standalone="no"?>
<!DOCTYPE svg PUBLIC "-//W3C//DTD SVG 20010904//EN"
 "http://www.w3.org/TR/2001/REC-SVG-20010904/DTD/svg10.dtd">
<svg version="1.0" xmlns="http://www.w3.org/2000/svg"
 width="619.000000pt" height="619.000000pt" viewBox="0 0 619.000000 619.000000"
 preserveAspectRatio="xMidYMid meet">
<metadata>
Created by potrace 1.16, written by Peter Selinger 2001-2019
</metadata>
<g transform="translate(0.000000,619.000000) scale(0.100000,-0.100000)"
fill="#000000" stroke="none">
<path d="M0 5641 l0 -549 57 -4 c32 -2 63 -1 68 3 6 4 17 4 25 -1 23 -14 66
-12 80 4 8 11 18 12 36 6 13 -5 61 -12 106 -16 46 -3 85 -7 86 -9 2 -2 1 -12
-3 -23 -5 -17 -12 -20 -42 -16 -20 3 -42 9 -48 14 -13 11 -75 9 -75 -2 0 -5
12 -9 28 -9 23 -2 24 -2 5 -6 -25 -5 -30 -19 -11 -25 7 -3 -16 -3 -52 0 -36 2
-70 9 -77 14 -7 6 -40 7 -80 3 -115 -11 -103 20 -103 -276 0 -171 3 -258 10
-254 5 3 10 -1 10 -9 0 -8 -5 -18 -10 -21 -17 -10 -12 -85 5 -85 20 0 20 -46
0 -54 -13 -5 -15 -21 -13 -83 2 -50 7 -78 16 -81 6 -2 12 3 12 10 0 19 87 60
111 53 14 -5 19 -1 19 12 1 12 18 27 50 42 46 23 49 26 34 42 -12 13 -12 18
-2 21 7 3 18 -1 23 -8 6 -8 19 -11 33 -8 17 5 22 14 22 40 0 36 13 44 28 18 8
-15 11 -15 29 3 11 11 23 28 26 37 5 12 14 17 27 13 11 -3 20 -1 20 4 0 5 9 9
20 9 11 0 20 4 20 9 0 6 13 24 28 41 27 29 33 31 83 28 78 -4 74 -28 -9 -47
-34 -8 -62 -19 -62 -25 0 -6 8 -23 18 -39 l19 -27 32 40 c55 69 86 41 35 -34
-21 -30 -30 -37 -49 -32 -15 4 -25 1 -28 -8 -3 -8 -19 -17 -35 -21 -17 -3 -32
-14 -35 -23 -2 -10 -23 -24 -46 -32 -28 -9 -41 -19 -41 -32 0 -23 -5 -23 -42
3 -34 25 -37 23 -41 -21 -2 -25 -10 -37 -32 -49 -17 -9 -41 -27 -54 -40 -24
-24 -24 -24 -32 -4 -8 23 -27 38 -36 29 -3 -3 0 -12 7 -21 17 -20 5 -45 -21
-45 -11 0 -29 -10 -38 -22 -19 -22 -41 -18 -41 8 0 8 -4 12 -10 9 -5 -3 -7
-19 -3 -35 6 -30 4 -31 -37 -34 -13 -1 -15 -28 -18 -168 -3 -188 -9 -173 73
-180 27 -3 30 -7 33 -41 l3 -39 -53 4 c-51 3 -53 2 -56 -25 -3 -21 7 -39 38
-75 23 -26 49 -49 57 -52 13 -5 13 -7 -1 -19 -13 -11 -21 -6 -55 31 l-41 43 0
-62 0 -63 48 3 c36 1 47 -1 47 -13 0 -11 -13 -16 -48 -18 l-47 -3 0 -255 0
-254 33 -2 c17 0 66 0 108 1 l77 3 -9 -44 c-12 -64 -11 -362 1 -448 11 -71 65
-267 108 -390 30 -83 52 -164 52 -188 0 -13 -8 -22 -22 -25 -20 -4 -20 -4 4
-6 25 -1 68 -41 68 -63 0 -5 13 -28 29 -51 15 -23 37 -60 49 -82 21 -41 61
-90 169 -204 34 -36 70 -76 80 -87 21 -25 175 -152 215 -178 15 -10 25 -22 22
-27 -3 -5 -61 -7 -129 -5 -69 2 -127 0 -131 -5 -3 -5 10 -9 28 -10 18 0 42 -2
53 -4 11 -2 63 -5 115 -6 119 -3 175 -20 339 -106 158 -83 259 -133 269 -133
5 0 27 -9 51 -20 23 -12 95 -39 159 -61 64 -23 140 -49 167 -59 28 -9 86 -25
130 -35 44 -9 125 -28 180 -42 55 -14 127 -31 160 -38 172 -37 883 -52 1085
-22 211 31 245 35 330 41 117 9 184 21 255 46 33 11 100 30 149 40 50 11 126
33 170 49 45 16 101 35 126 42 25 7 59 21 75 30 17 9 53 22 80 29 28 6 66 20
85 30 131 68 153 75 235 75 118 -1 526 -14 632 -22 l92 -6 -33 -61 c-18 -34
-36 -74 -40 -90 -4 -16 -18 -43 -32 -59 -13 -16 -24 -42 -25 -60 -2 -50 -13
-84 -23 -68 -7 11 -10 11 -17 0 -7 -10 -11 -11 -17 -2 -8 12 -62 6 -62 -7 0
-12 64 -19 78 -8 8 7 12 7 12 -2 0 -8 3 -10 7 -7 11 12 33 -15 33 -41 0 -19
15 -41 53 -75 71 -68 123 -89 229 -95 81 -4 90 -2 146 25 33 17 69 37 80 45
13 9 38 13 67 11 42 -3 45 -2 45 22 0 18 -5 25 -19 25 -31 0 -34 18 -8 42 23
22 24 27 22 163 -1 134 -2 141 -26 166 -13 14 -32 35 -42 48 l-17 22 45 -6 45
-5 0 35 0 34 -61 -6 c-45 -4 -60 -3 -55 6 4 6 1 11 -6 11 -11 0 -11 2 0 9 12
7 -19 10 -188 14 -39 1 -81 -5 -105 -14 -34 -13 -78 -15 -275 -12 -129 3 -290
8 -358 11 l-123 7 108 71 c59 39 119 75 133 79 30 10 59 9 305 -5 105 -6 222
-12 260 -14 92 -4 216 -16 235 -23 8 -2 41 -6 73 -8 l58 -4 -3 36 c-2 27 -8
37 -23 39 -18 3 -391 11 -717 16 -71 1 -128 5 -128 9 0 4 10 13 23 22 12 8 42
33 67 56 25 23 65 56 89 74 24 18 65 52 90 76 25 24 56 50 69 58 12 9 22 21
22 27 0 7 16 18 35 25 19 7 35 18 35 25 0 7 11 23 24 35 24 22 26 23 220 15
l196 -7 0 32 0 31 -109 0 c-59 0 -136 3 -169 6 l-61 7 22 28 c12 15 27 28 32
28 6 1 19 12 29 26 14 18 25 24 39 19 13 -4 17 -2 13 5 -9 14 7 14 20 1 6 -6
42 -11 80 -12 111 -1 104 -5 104 57 l0 55 -32 1 c-18 1 -54 2 -80 2 -27 -1
-48 3 -48 8 0 17 27 23 93 21 65 -2 67 -1 67 23 0 21 -5 25 -32 27 -18 0 -43
0 -55 -1 -13 -1 -23 2 -23 7 0 15 22 30 37 25 12 -5 14 0 8 26 -6 27 -3 35 14
48 12 8 21 22 20 31 -3 31 1 42 15 42 11 0 14 33 15 173 1 99 -3 185 -8 201
-8 19 -7 32 1 46 14 22 10 28 -20 33 -12 2 -24 6 -28 10 -4 3 -8 46 -10 94 -2
48 -6 102 -9 118 -3 17 -9 58 -13 93 -8 60 -7 62 15 62 20 0 22 -4 17 -24 -3
-13 -1 -27 5 -30 6 -4 11 -2 11 3 0 6 10 11 23 12 l22 0 -22 11 c-28 14 -30
28 -3 23 19 -4 20 2 20 168 l0 172 -55 1 c-40 0 -55 -3 -55 -13 0 -11 -7 -10
-37 2 -37 15 -52 10 -53 -20 0 -5 -9 5 -21 24 -11 18 -18 40 -15 47 3 8 -1 14
-8 14 -14 0 -66 68 -66 87 0 5 -11 27 -25 47 -13 20 -20 36 -15 36 5 0 17 -11
25 -24 18 -27 56 -34 233 -41 l92 -3 0 69 c0 58 -3 69 -17 71 -20 2 -57 3
-264 6 -144 2 -146 2 -157 27 -11 24 -10 24 21 18 18 -3 39 -9 47 -14 9 -4 24
-3 33 3 10 5 26 7 35 3 32 -13 112 -16 112 -5 0 6 5 8 11 4 6 -4 49 -8 95 -11
l84 -3 0 60 c0 47 -3 60 -15 60 -8 0 -15 6 -15 13 0 7 -9 18 -20 25 -17 10
-25 10 -43 -3 -12 -8 -31 -14 -42 -14 -17 1 -17 2 -2 6 35 9 4 23 -52 23 -36
0 -64 -6 -77 -15 -10 -8 -14 -15 -9 -14 24 3 39 -1 30 -10 -6 -5 -34 -6 -63
-2 -29 4 -54 5 -57 3 -8 -9 -114 -9 -109 0 3 4 -2 8 -10 8 -9 0 -16 -4 -16 -8
0 -4 -11 -8 -24 -7 -26 0 -126 84 -126 105 0 9 3 10 13 2 11 -9 138 -28 207
-31 8 0 108 -3 223 -7 l207 -7 0 401 0 401 -32 0 c-18 0 -40 0 -48 1 -8 0 -30
-3 -47 -6 -21 -4 -33 -2 -33 5 0 7 -25 9 -77 5 -43 -3 -109 -1 -148 5 -50 7
-73 7 -83 -1 -9 -8 -16 -8 -20 -1 -5 6 -81 9 -214 8 -114 -1 -205 1 -203 4 6
11 -160 6 -167 -4 -5 -6 -8 -5 -8 3 0 6 -6 12 -14 12 -8 0 -16 -6 -19 -12 -3
-10 -7 -10 -18 -2 -8 6 -43 14 -78 17 -38 3 -59 2 -51 -3 21 -13 9 -19 -22
-13 -29 6 -39 37 -15 46 8 4 9 8 1 14 -6 4 -13 16 -17 25 -6 16 10 17 211 13
119 -3 266 -5 327 -5 60 -1 114 -5 120 -10 5 -4 48 -8 95 -8 133 2 470 -24
463 -35 -3 -5 -32 -7 -64 -4 -33 3 -59 1 -59 -4 0 -5 5 -9 11 -9 5 0 8 -3 6
-7 -3 -5 29 -9 71 -10 43 -1 89 -4 105 -7 22 -4 27 -1 27 15 0 15 -7 19 -34
19 -19 0 -38 5 -41 10 -4 6 10 10 34 10 l41 0 0 780 0 780 -3095 0 -3095 0 0
-549z m2890 44 c28 -14 30 -20 30 -71 0 -49 2 -55 18 -49 97 39 223 63 392 75
380 26 777 -72 993 -247 41 -33 53 -29 66 21 9 38 16 46 46 56 41 13 87 2 131
-32 54 -43 83 -159 49 -204 -21 -28 -19 -36 28 -86 70 -76 123 -195 179 -408
20 -79 22 -106 22 -370 -1 -250 -3 -300 -23 -410 -14 -78 -24 -188 -28 -292
-3 -93 -9 -168 -13 -168 -4 0 -26 24 -48 53 -81 105 -133 148 -204 167 -27 7
-48 17 -48 22 0 5 22 38 50 74 78 102 102 201 72 301 -11 37 -23 95 -27 128
-20 173 -281 490 -553 671 -159 106 -361 186 -551 220 -161 28 -431 18 -583
-22 -184 -47 -313 -114 -429 -219 -155 -141 -213 -235 -233 -380 -10 -68 -17
-97 -41 -180 -27 -90 -60 -280 -69 -397 -7 -84 8 -228 30 -292 24 -66 19 -94
-19 -110 -100 -41 -235 -173 -292 -286 -9 -19 -24 -42 -31 -51 -7 -8 -27 -47
-43 -86 -69 -168 -83 -378 -35 -526 19 -59 14 -71 -8 -19 -84 192 -102 274
-102 447 1 177 35 316 121 490 47 94 67 129 168 285 78 119 91 146 115 223 22
73 35 146 50 277 31 263 170 658 292 825 32 44 143 170 188 213 60 58 171 142
188 142 6 0 17 8 24 18 7 10 25 22 40 25 15 4 37 21 49 38 l22 31 -20 26 c-28
38 -80 41 -116 8 -36 -34 -37 -82 -2 -98 l25 -11 -41 -19 c-55 -24 -77 -23
-91 7 -17 37 5 98 51 144 56 56 152 77 211 46z m325 -556 c4 -5 -1 -20 -12
-32 -13 -16 -14 -18 -1 -9 25 20 28 3 14 -86 -7 -45 -13 -121 -14 -169 l0 -88
8 80 c15 140 43 285 57 297 30 25 374 -36 459 -81 40 -22 64 -55 84 -116 7
-22 17 -46 23 -53 6 -7 11 -35 11 -62 1 -35 5 -50 16 -53 10 -3 23 -35 37 -93
38 -156 42 -179 34 -187 -4 -4 -24 -1 -44 8 -45 18 -176 49 -276 64 -41 7 -78
14 -82 17 -4 2 5 24 21 47 72 107 180 350 180 405 0 29 -17 -1 -35 -63 -33
-109 -143 -327 -202 -402 -25 -31 -71 -41 -79 -17 -20 58 -68 161 -81 174 -12
13 -16 12 -34 -10 -11 -14 -34 -49 -51 -79 -27 -46 -33 -51 -40 -35 -5 14 -7
9 -5 -16 2 -29 -2 -36 -20 -38 -15 -2 -26 6 -39 27 -21 35 -59 55 -194 101
-52 18 -98 34 -103 37 -4 2 7 24 23 49 33 47 38 53 139 157 45 46 58 64 43 60
-12 -3 -28 -1 -35 5 -7 6 -42 12 -78 13 -72 2 -113 14 -104 29 3 5 2 10 -4 10
-6 0 -13 -11 -17 -25 -3 -14 -15 -30 -25 -35 -10 -6 -24 -21 -31 -34 -7 -13
-46 -63 -86 -110 -62 -73 -78 -86 -104 -86 l-30 0 7 93 c4 50 12 103 18 116
14 28 69 60 177 103 128 51 233 76 375 88 44 4 83 7 87 8 4 1 10 -3 13 -9z
m-2490 -39 c-3 -5 -1 -10 5 -10 6 0 8 -4 5 -10 -9 -14 19 -12 33 2 9 9 12 9
12 0 0 -12 134 -10 263 4 34 3 47 1 42 -6 -4 -7 2 -14 14 -17 12 -3 21 -11 21
-18 0 -14 -208 -19 -225 -5 -5 5 -29 11 -53 15 -33 5 -44 3 -48 -9 -6 -17 -34
-22 -34 -7 0 15 -70 23 -106 11 -25 -9 -38 -9 -48 -1 -7 6 -20 9 -28 6 -7 -3
-22 1 -33 9 -18 13 -15 15 39 15 32 0 62 4 65 9 3 6 22 12 41 15 19 2 36 5 38
5 2 1 0 -2 -3 -8z m3135 -100 c74 -38 238 -154 338 -240 104 -88 257 -281 316
-398 33 -66 36 -78 36 -160 0 -68 -8 -122 -35 -228 -50 -203 -82 -292 -161
-461 -19 -39 -34 -75 -34 -79 0 -13 -119 -199 -147 -229 l-28 -30 -3 33 c-2
17 -7 32 -13 32 -5 0 -40 -31 -78 -69 -92 -92 -201 -165 -201 -135 0 3 14 26
32 52 70 101 218 461 205 495 -4 8 -6 7 -6 -4 -2 -29 -66 -78 -146 -109 -122
-48 -232 -69 -400 -76 -349 -15 -695 71 -877 219 -29 23 -72 56 -95 72 -27 19
-43 38 -43 51 0 11 23 47 50 78 53 61 60 80 34 90 -21 8 -52 -12 -100 -64 -21
-22 -41 -40 -45 -40 -20 0 -70 129 -78 201 -10 93 2 226 24 268 l16 32 38 -38
c65 -67 302 -137 443 -130 95 5 146 38 193 122 20 36 40 86 44 112 l7 48 49
-2 c52 -2 132 -20 151 -35 8 -5 10 -37 6 -96 -3 -69 -1 -95 12 -119 53 -104
293 -206 513 -220 87 -5 103 -3 139 15 44 22 69 62 89 142 11 41 14 44 48 47
20 1 39 -2 42 -7 3 -4 -8 -59 -25 -121 -16 -62 -28 -115 -26 -117 7 -7 24 32
31 73 4 22 20 85 36 140 25 91 52 279 42 298 -10 17 -23 -7 -23 -43 0 -54 -17
-59 -25 -8 -9 48 -43 150 -44 128 -1 -8 11 -55 25 -105 36 -129 37 -133 31
-149 -5 -12 -14 -8 -41 16 -25 22 -40 48 -52 87 -18 65 -36 88 -81 108 -38 15
-39 25 -19 110 8 32 17 71 20 86 9 38 22 31 54 -28 33 -62 31 -59 38 -52 3 3
-10 36 -30 74 -30 57 -45 74 -87 99 -27 16 -71 36 -96 44 -44 14 -48 18 -65
70 -10 30 -30 78 -43 107 -14 28 -25 54 -25 57 0 12 32 5 70 -14z m-857 -37
c24 -6 21 -11 -43 -82 -30 -33 -73 -83 -95 -110 -22 -28 -43 -51 -47 -51 -9 0
-9 85 1 180 l6 65 40 6 c39 6 101 3 138 -8z m-211 -193 c-5 -36 -13 -54 -21
-52 -7 1 -39 5 -72 9 -33 3 -61 9 -64 12 -2 4 17 32 43 62 26 30 63 74 82 98
l35 42 3 -58 c1 -32 -1 -83 -6 -113z m-266 108 c-3 -24 -9 -68 -12 -98 -4 -30
-12 -61 -17 -69 -6 -7 -16 -23 -22 -35 -6 -12 -23 -23 -40 -26 -54 -9 -76 -93
-29 -110 19 -8 24 -15 19 -28 -4 -9 -11 -57 -15 -107 -4 -51 -17 -116 -30
-150 -20 -54 -22 -74 -18 -190 3 -96 9 -141 22 -170 11 -23 18 -61 17 -90 -2
-78 -6 -85 -54 -85 -23 0 -60 -5 -82 -11 -22 -6 -56 -12 -75 -13 l-35 -1 0
205 c0 172 4 221 22 305 52 242 205 597 289 675 57 52 68 51 60 -2z m-1836
-72 c0 6 -5 15 -12 22 -9 9 -8 12 5 12 9 0 20 -7 25 -16 8 -14 10 -14 25 0 18
18 37 21 37 6 0 -5 5 -10 11 -10 5 0 7 5 4 10 -4 6 12 10 42 9 44 -1 45 -2 18
-10 -19 -5 -7 -6 35 -2 69 6 142 5 200 -3 93 -12 425 -30 458 -25 47 8 336 4
465 -7 53 -4 97 -4 97 0 0 4 5 8 10 8 6 0 10 -7 10 -16 0 -14 3 -14 15 -4 12
10 15 9 15 -6 0 -24 -36 -80 -41 -65 -3 8 -76 13 -234 16 -127 3 -261 8 -300
11 -38 3 -205 7 -370 8 -165 0 -306 5 -312 9 -7 5 -13 5 -13 0 0 -4 -22 -8
-50 -8 -27 0 -50 4 -50 9 0 5 -7 3 -15 -4 -12 -10 -15 -10 -15 4 0 19 -5 20
-30 6 -15 -8 -24 -3 -48 28 -43 56 -49 70 -14 38 18 -17 32 -25 32 -20z m3285
-74 l50 -28 -2 -49 c-3 -58 -39 -185 -53 -185 -5 0 -12 17 -15 38 -4 20 -18
79 -31 130 -36 139 -34 141 51 94z m-1374 -31 c-11 -7 -11 -10 0 -17 7 -4 14
-3 17 4 5 17 29 15 36 -3 6 -17 36 -21 36 -5 0 6 7 10 15 10 15 0 21 -32 17
-95 -2 -32 -42 -75 -68 -75 -8 0 -12 -4 -9 -10 4 -6 -8 -11 -27 -12 -61 -3
-93 3 -101 18 -5 9 -17 23 -27 31 -17 15 -16 58 1 47 5 -3 6 2 3 10 -9 25 44
104 60 89 3 -4 6 -1 6 5 0 7 12 12 28 12 19 0 23 -3 13 -9z m762 -81 c28 -69
37 -113 24 -118 -4 -2 -41 4 -82 13 -69 16 -75 19 -70 39 10 32 35 87 58 124
24 41 33 34 70 -58z m-2498 44 c254 -5 483 -16 515 -25 27 -8 47 -8 71 -1 19
6 72 9 119 7 243 -11 363 -16 438 -18 l83 -2 -5 -25 c-4 -14 -9 -41 -12 -60
-3 -19 -10 -44 -14 -55 -5 -11 -10 -29 -12 -39 -2 -11 -9 -21 -16 -22 -7 -1
-8 0 -2 3 5 2 10 17 10 31 -1 26 -1 26 -15 8 -11 -14 -15 -16 -15 -5 0 11 -18
14 -92 12 -51 -1 -108 -2 -125 -3 -36 0 -44 -19 -17 -41 14 -11 18 -11 28 2 7
10 17 13 26 8 8 -4 32 -11 53 -14 25 -4 35 -10 31 -18 -4 -7 -3 -8 2 -4 5 5 9
14 9 20 0 7 8 13 19 15 12 3 16 0 11 -8 -5 -9 -1 -10 14 -5 25 8 28 -10 4 -23
-10 -5 -43 -15 -73 -22 -55 -13 -160 -55 -278 -110 l-63 -30 -222 7 c-122 5
-257 8 -299 8 l-77 0 -21 49 c-11 27 -20 54 -20 60 -1 15 -50 111 -88 171 -17
28 -32 56 -32 63 0 6 -4 12 -9 12 -5 0 -14 14 -20 30 -6 18 -6 28 -1 25 6 -4
10 0 10 7 0 8 3 9 8 3 4 -5 39 -11 77 -11z m2750 -139 c77 -9 93 -15 98 -36 4
-14 0 -19 -16 -20 -22 -2 -21 -2 1 -6 16 -3 22 -11 22 -29 0 -53 -50 -109
-112 -125 -43 -12 -50 -11 -94 12 -26 13 -55 35 -65 49 -21 31 -34 72 -21 68
6 -2 10 2 10 7 1 6 -7 8 -16 7 -12 -3 -10 3 8 20 14 14 32 28 40 32 8 4 26 13
40 21 14 8 32 13 40 10 8 -2 38 -6 65 -10z m-1575 -152 c0 -31 -32 -251 -44
-308 -14 -63 -74 -197 -95 -210 -5 -2 -27 19 -49 48 -80 104 -214 230 -269
254 -18 7 -33 17 -33 21 0 7 147 80 245 122 32 14 225 78 238 79 4 1 7 -2 7
-6z m2885 -143 c8 0 15 7 15 16 0 8 5 12 10 9 6 -4 7 -11 4 -17 -4 -6 3 -5 16
2 12 6 29 8 38 4 17 -7 59 -13 95 -13 52 0 79 -1 95 -2 9 -1 35 -1 57 0 22 1
62 -2 89 -5 33 -4 51 -2 56 6 6 9 13 9 28 1 14 -7 23 -8 27 -1 10 17 25 11 25
-9 0 -16 7 -20 39 -19 51 0 68 -10 44 -27 -17 -12 -16 -14 12 -21 l30 -7 -30
-9 c-16 -5 -142 -8 -279 -8 l-250 1 -75 34 c-71 32 -76 36 -79 67 -2 27 0 30
8 16 6 -10 18 -18 25 -18z m-3740 -31 c111 -1 181 -6 173 -11 -12 -8 -2 -7 67
7 14 3 25 1 25 -4 0 -11 -34 -32 -155 -96 -49 -27 -92 -51 -95 -54 -10 -13
-86 -58 -108 -65 -12 -4 -36 -19 -52 -33 l-30 -25 0 34 c0 37 -25 199 -36 237
-6 20 -4 23 9 18 9 -3 100 -7 202 -8z m3764 -60 c197 -92 465 -266 589 -382
35 -34 30 -57 -9 -37 -33 18 -223 25 -305 11 -129 -22 -237 -68 -341 -144 -33
-25 -64 -43 -67 -40 -17 18 -5 199 30 436 8 54 14 115 14 136 0 35 6 51 18 51
3 0 35 -14 71 -31z m-3402 6 c93 -39 327 -278 326 -334 0 -15 -25 -63 -60
-116 -126 -188 -185 -347 -222 -602 -8 -50 -8 -94 0 -148 6 -43 8 -80 5 -83
-3 -3 -56 47 -116 110 -211 222 -351 298 -551 298 -31 0 -59 3 -62 6 -4 4 2
19 13 34 34 48 84 201 101 315 6 39 13 77 14 85 2 8 4 50 4 93 l1 77 63 40
c34 22 67 44 74 50 7 5 15 10 19 10 3 0 38 20 78 44 104 64 238 135 259 135
10 1 34 -6 54 -14z m3908 -75 c292 -11 353 -15 342 -26 -3 -3 -61 -7 -130 -9
-69 -1 -129 -5 -135 -9 -6 -3 -12 -1 -14 5 -2 6 -14 5 -33 -5 l-30 -16 26 0
c15 0 43 -7 62 -15 20 -8 59 -15 86 -15 28 0 51 -5 53 -11 4 -13 49 -15 91 -4
22 6 26 4 22 -8 -6 -14 -42 -16 -347 -20 -16 0 -28 -3 -28 -6 1 -20 23 -33 69
-40 28 -4 54 -10 56 -13 5 -4 -95 -3 -105 2 -3 1 -8 2 -12 1 -5 0 -8 8 -8 18
0 13 -9 21 -30 26 -16 4 -30 11 -30 16 0 5 -5 9 -10 9 -6 0 -32 15 -58 33 -26
18 -71 46 -99 62 -29 15 -53 32 -53 37 0 5 3 7 8 4 4 -2 142 -9 307 -16z m55
-382 c46 -11 92 -24 101 -29 14 -7 88 -89 149 -165 61 -76 172 -262 190 -319
7 -22 16 -44 20 -50 6 -8 47 -128 55 -160 1 -5 5 -17 8 -25 4 -8 11 -42 16
-75 6 -33 15 -87 21 -120 17 -99 13 -186 -10 -215 -11 -14 -20 -29 -20 -33 0
-8 -58 -95 -70 -107 -3 -3 -27 -39 -53 -80 -25 -41 -68 -103 -94 -137 l-48
-63 -8 112 c-4 62 -14 123 -23 139 -7 15 -14 37 -14 48 0 26 -111 247 -150
297 -69 90 -134 146 -210 181 -79 37 -273 59 -370 44 -36 -6 -75 -11 -88 -11
-23 0 -23 0 10 58 59 103 132 201 151 202 9 0 17 -5 17 -11 0 -6 14 -9 33 -7
24 2 33 8 35 26 3 23 26 30 37 12 10 -17 66 -7 81 14 20 29 18 109 -3 129 -21
18 -76 33 -158 43 -33 4 -87 19 -120 34 -33 15 -83 37 -112 50 -46 20 -51 25
-42 42 24 45 189 139 302 172 68 20 187 34 242 28 22 -2 78 -13 125 -24z
m-963 -4 c65 -32 163 -125 163 -154 0 -4 -42 -5 -92 -3 -58 3 -121 -1 -165
-10 -40 -8 -73 -11 -73 -8 0 3 19 50 42 103 28 63 49 98 59 98 8 0 38 -12 66
-26z m-2177 9 l33 -6 -6 -74 c-3 -41 -8 -77 -11 -80 -11 -11 -102 21 -139 50
-48 37 -63 63 -46 83 23 27 103 41 169 27z m207 -59 c32 -22 53 -44 53 -55 0
-22 -47 -44 -115 -55 l-46 -6 6 53 c13 116 19 120 102 63z m-327 -74 c25 -16
69 -37 98 -45 l52 -16 0 -68 c0 -37 3 -71 7 -74 12 -13 43 26 43 53 0 15 3 30
7 34 4 4 8 15 8 24 0 11 16 19 55 28 30 6 68 15 84 19 l29 8 -6 -134 c-17
-350 -19 -424 -14 -419 3 3 8 35 11 70 11 152 20 221 28 226 5 3 26 -2 46 -13
31 -15 64 -18 191 -20 l153 -1 37 -35 c20 -19 61 -48 91 -65 189 -103 413
-118 633 -43 65 23 72 15 37 -41 -23 -38 -25 -48 -9 -48 38 0 215 119 246 166
8 13 20 24 25 24 10 0 8 -18 -8 -69 -4 -14 -3 -22 3 -20 26 10 149 163 189
237 25 45 48 82 51 82 6 0 -1 -61 -17 -135 -6 -27 -15 -90 -20 -139 -6 -49
-15 -95 -21 -102 -6 -7 -44 -20 -85 -30 -41 -9 -77 -21 -81 -28 -4 -6 -8 -54
-9 -106 -3 -106 -17 -235 -40 -355 -22 -117 -75 -318 -88 -331 -18 -19 -300
-54 -432 -54 l-121 0 -43 48 c-85 94 -235 244 -255 254 -20 10 44 -64 77 -89
9 -7 26 -27 38 -43 18 -26 20 -35 11 -63 -6 -17 -25 -47 -42 -65 -25 -26 -35
-31 -57 -25 -49 12 -81 6 -119 -21 -21 -16 -92 -67 -158 -115 -76 -55 -134
-107 -159 -139 -21 -29 -45 -52 -52 -52 -19 0 -111 108 -139 164 -18 35 -26
44 -31 33 -12 -31 141 -217 178 -217 22 0 22 -16 4 -89 -33 -131 -45 -205 -57
-351 -22 -289 4 -490 85 -654 l43 -89 -92 6 c-225 15 -556 82 -770 156 -210
73 -319 113 -330 121 -5 4 -27 13 -49 20 -40 13 -139 67 -232 126 -120 77
-148 116 -202 284 -45 141 -55 226 -42 356 28 286 74 422 190 569 64 79 93
105 185 158 92 53 275 102 290 77 9 -14 -118 -147 -154 -161 -16 -7 -39 -4
-76 7 -51 16 -85 14 -85 -5 0 -16 92 -112 147 -152 84 -62 97 -65 141 -25 54
48 196 115 247 116 11 1 44 9 74 19 l53 19 90 -39 c95 -40 239 -82 322 -94
l49 -7 -23 29 c-12 15 -50 71 -83 124 -78 120 -176 239 -240 290 -27 21 -53
39 -58 39 -17 0 -29 38 -20 63 11 27 42 42 79 38 13 -1 30 3 38 9 8 7 27 10
44 6 17 -3 30 -4 30 -2 0 1 -25 16 -55 31 -39 21 -55 35 -55 50 -1 11 0 123 0
248 1 252 13 382 37 409 13 15 14 23 5 44 -21 44 -14 45 48 4z m528 -119 c46
-23 55 -41 20 -41 -44 0 5 -30 98 -60 83 -26 129 -59 110 -77 -3 -3 -42 -8
-86 -11 -85 -5 -181 9 -234 35 l-32 15 3 86 c2 48 6 98 9 111 l5 24 32 -30
c18 -17 51 -40 75 -52z m-648 59 c0 -5 -4 -10 -9 -10 -4 0 -16 -26 -26 -57
-10 -32 -28 -70 -40 -85 -17 -20 -22 -40 -23 -86 -1 -70 23 -112 64 -112 14 0
26 -6 29 -12 2 -7 5 -79 7 -161 3 -96 8 -151 16 -159 19 -19 15 -40 -7 -33
-27 8 -65 -12 -85 -46 -14 -23 -22 -28 -41 -23 -14 3 -39 1 -55 -5 -30 -10
-32 -9 -45 22 -19 46 -35 174 -35 284 0 71 -3 94 -12 91 -8 -3 -15 -28 -18
-59 -3 -30 -9 -60 -14 -68 -14 -22 -36 -151 -36 -210 0 -30 -2 -52 -5 -49 -15
14 -45 155 -45 208 0 107 65 260 165 389 75 98 91 113 150 156 52 37 65 42 65
25z m2584 -1 c51 -9 242 -89 301 -125 11 -6 53 -15 93 -19 104 -9 187 -48 133
-62 -16 -4 -19 -9 -11 -18 6 -7 8 -20 4 -29 -5 -13 -16 -15 -60 -10 -50 6 -54
5 -54 -15 0 -29 -15 -26 -70 14 -40 30 -62 37 -150 51 -70 11 -140 15 -219 12
-100 -4 -124 -8 -170 -31 -30 -15 -58 -27 -62 -27 -5 0 -31 -14 -60 -30 -28
-17 -53 -29 -56 -26 -2 2 6 67 18 145 22 140 22 140 53 152 62 24 225 34 310
18z m-773 -244 l-49 -110 -96 -32 c-165 -55 -302 -64 -446 -27 -65 16 -204 83
-241 116 -36 32 -79 103 -79 130 0 13 3 18 8 12 4 -6 28 -20 54 -32 25 -11 49
-28 52 -38 8 -23 134 -114 158 -114 32 0 19 29 -22 50 -22 11 -40 27 -40 34 0
23 27 38 57 32 15 -4 98 -2 183 4 237 15 397 48 490 99 28 16 21 -14 -29 -124z
m865 19 l41 -6 13 -81 c11 -75 10 -90 -9 -172 -24 -98 -49 -173 -82 -238 -29
-56 -113 -178 -143 -206 l-24 -23 0 79 c0 101 -21 200 -88 400 -30 90 -54 169
-54 177 0 16 71 52 130 65 23 5 45 12 48 16 7 6 72 2 168 -11z m-3706 -59
c127 -42 256 -142 391 -302 41 -48 82 -96 91 -106 9 -11 24 -42 33 -71 18 -56
37 -101 66 -159 10 -22 19 -41 19 -43 0 -2 -18 -4 -41 -4 -22 0 -61 -5 -87
-11 -62 -15 -217 -89 -266 -128 -21 -17 -42 -31 -45 -31 -3 0 -17 -17 -30 -38
-14 -20 -37 -50 -52 -67 -30 -33 -99 -165 -122 -235 -43 -130 -72 -426 -52
-539 l7 -44 -38 23 c-22 13 -63 44 -93 69 -30 25 -84 71 -120 101 -131 109
-391 362 -391 380 0 4 -9 10 -19 13 -13 3 -24 20 -32 48 -7 24 -14 49 -15 54
-59 206 -80 374 -69 559 11 173 8 166 95 188 66 16 274 109 282 126 2 4 28 26
59 49 64 49 115 102 152 158 l26 40 98 -6 c54 -3 123 -14 153 -24z m3334 -37
c2 -7 12 -42 22 -78 10 -36 29 -92 42 -125 29 -76 53 -181 61 -267 6 -64 -2
-89 -16 -50 -9 25 -44 62 -60 62 -9 0 -13 -16 -13 -56 0 -31 -10 -106 -22
-165 l-22 -109 -81 -43 c-44 -24 -100 -51 -125 -61 -25 -10 -60 -25 -77 -33
-58 -25 -116 -43 -121 -38 -3 2 0 17 6 32 41 107 102 485 102 634 0 57 4 90
13 97 6 5 39 13 71 17 73 9 106 37 106 89 0 26 6 40 25 53 14 10 35 26 47 36
25 20 37 22 42 5z m791 -282 c198 -35 299 -117 405 -331 108 -216 128 -351 91
-605 -23 -158 -51 -258 -86 -305 -37 -49 -149 -158 -211 -206 -33 -24 -76 -60
-97 -78 -138 -126 -573 -358 -874 -466 -51 -18 -93 -29 -93 -24 0 5 15 29 34
53 47 61 79 134 111 246 38 133 43 251 16 405 -27 154 -44 198 -123 321 -71
109 -129 167 -239 239 -39 26 -69 49 -66 51 3 3 57 29 120 58 63 29 128 63
145 75 17 11 34 21 40 21 5 0 43 22 83 48 113 74 232 221 325 401 42 80 52 87
144 100 88 13 189 12 275 -3z m-3134 -247 c79 -51 149 -120 149 -148 0 -83
-59 -201 -100 -201 -23 0 -59 19 -75 38 -9 11 -18 10 -49 -9 -21 -12 -59 -26
-84 -30 -97 -18 -224 -72 -264 -113 -44 -45 -61 -44 -123 6 -95 77 -160 162
-114 149 111 -31 131 -27 195 40 68 70 191 189 239 231 110 95 131 98 226 37z
m2014 -502 c22 -13 75 -49 117 -80 65 -48 89 -74 141 -155 82 -126 105 -181
128 -316 22 -124 25 -216 9 -291 -6 -27 -13 -67 -17 -87 -6 -42 -17 -54 -53
-62 -14 -3 -82 -28 -153 -55 -70 -28 -178 -65 -240 -82 -61 -17 -119 -35 -129
-40 -34 -17 -240 -49 -423 -65 -244 -22 -779 -21 -816 1 -3 3 -12 45 -19 95
-14 96 -8 349 11 530 9 81 50 239 79 305 5 11 11 29 14 40 3 11 23 31 43 45
21 14 93 65 162 114 l124 88 56 -12 c140 -31 560 -22 726 15 33 7 80 16 105
20 25 4 47 9 49 11 11 10 50 2 86 -19z m1863 -1246 c27 -14 43 -16 55 -10 13
8 17 6 17 -9 0 -10 12 -29 26 -43 42 -39 84 -110 84 -142 0 -74 -83 -163 -167
-178 -62 -12 -72 -1 -48 52 22 48 16 63 -41 96 -58 34 -94 49 -139 57 -68 13
-81 39 -47 95 52 86 176 125 260 82z m-147 -238 c51 -27 55 -31 65 -81 16 -69
0 -138 -39 -170 -8 -7 -36 -15 -63 -18 l-49 -6 24 20 24 20 -23 53 c-29 69
-46 82 -72 56 -17 -17 -78 -38 -89 -31 -5 3 -9 25 -9 50 0 36 6 51 36 83 52
58 112 65 195 24z"/>
<path d="M4458 5410 c-10 -6 -18 -21 -18 -33 0 -26 92 -127 115 -127 41 0 39
105 -3 143 -24 22 -72 30 -94 17z"/>
<path d="M2914 3982 c-48 -32 -41 -116 17 -196 33 -47 97 -96 124 -96 16 0 0
18 -38 44 -52 34 -86 81 -93 127 -5 27 -1 39 19 57 l25 24 104 -15 c57 -9 164
-19 238 -22 74 -4 144 -8 155 -9 21 -1 45 -39 45 -73 0 -12 -8 -41 -19 -65
-25 -59 -80 -96 -156 -106 -33 -4 -58 -11 -57 -17 2 -5 15 -9 30 -7 138 14
244 119 227 223 -11 65 -28 72 -188 81 -166 8 -303 25 -367 44 -52 16 -52 16
-66 6z"/>
<path d="M1258 4473 c-21 -2 -38 -8 -38 -13 0 -15 103 -23 312 -24 160 -1 208
2 208 12 0 14 -7 14 -149 12 -72 -1 -101 2 -96 9 4 7 -4 11 -19 11 -14 0 -26
-4 -26 -9 0 -4 -19 -5 -42 0 -44 8 -83 9 -150 2z"/>
<path d="M2600 2913 c0 -40 -25 -104 -45 -119 -16 -12 -16 -14 -2 -29 36 -36
87 -103 87 -115 0 -9 -9 -11 -32 -6 -29 6 -31 5 -18 -8 32 -32 377 -70 430
-48 20 9 10 11 -55 12 -77 1 -203 13 -255 26 -23 5 -81 69 -120 130 -13 20
-13 27 -1 45 14 23 29 139 17 139 -3 0 -6 -12 -6 -27z"/>
<path d="M13 344 c-32 -14 -6 -23 80 -28 50 -3 256 -11 457 -16 201 -5 435
-12 520 -15 400 -12 516 -16 655 -21 83 -2 213 -6 290 -9 77 -2 165 -6 195 -9
30 -3 116 -8 190 -12 74 -3 141 -9 149 -14 7 -4 30 -4 50 0 21 4 48 3 60 -1
12 -5 72 -7 133 -6 62 2 107 2 100 -1 -20 -6 -13 -20 8 -15 11 3 17 9 14 14
-3 5 0 9 5 9 10 0 15 -14 12 -32 0 -4 13 -6 29 -5 17 1 30 5 30 10 0 11 68 9
75 -3 3 -5 42 -8 88 -6 51 2 74 0 62 -5 -12 -5 23 -7 88 -5 59 1 107 -1 107
-6 0 -4 5 -8 10 -8 6 0 10 8 10 18 0 12 3 13 8 5 9 -14 111 -21 597 -39 94 -3
186 -7 205 -8 19 -1 45 2 58 6 12 4 22 3 22 -2 0 -5 55 -9 123 -10 67 0 165
-3 217 -7 52 -3 125 -7 161 -9 37 -1 91 -5 120 -8 30 -3 119 -8 198 -11 177
-7 282 -20 291 -35 5 -8 9 -6 14 5 5 14 13 16 39 10 44 -10 156 -17 251 -16
68 0 79 -2 83 -18 5 -20 36 -26 160 -35 41 -3 64 0 67 8 3 7 5 7 5 -1 1 -9 22
-13 71 -13 l70 0 0 141 0 141 -23 -6 c-14 -3 -33 1 -45 10 -20 14 -23 14 -28
-1 -6 -14 -8 -14 -25 0 -17 16 -59 13 -59 -3 0 -10 -15 -10 -343 -15 -159 -3
-290 -7 -293 -10 -8 -7 100 -19 211 -22 55 -2 161 -7 235 -10 74 -4 160 -8
190 -8 31 -1 54 -6 52 -12 -1 -6 -35 -9 -80 -9 -268 5 -393 4 -401 -1 -5 -3
-12 -2 -15 3 -3 5 -123 9 -268 10 -244 1 -403 4 -828 17 -242 7 -484 14 -665
20 -88 3 -266 7 -395 10 -305 7 -560 14 -790 20 -461 13 -562 15 -820 20 -396
8 -840 20 -1065 30 -60 2 -229 7 -375 10 -146 3 -281 8 -300 10 -19 2 -41 2
-47 -1z"/>
</g>
</svg>
