<?xml version="1.0" standalone="no"?>
<!DOCTYPE svg PUBLIC "-//W3C//DTD SVG 20010904//EN"
 "http://www.w3.org/TR/2001/REC-SVG-20010904/DTD/svg10.dtd">
<svg version="1.0" xmlns="http://www.w3.org/2000/svg"
 width="1200.000000pt" height="1200.000000pt" viewBox="0 0 1200.000000 1200.000000"
 preserveAspectRatio="xMidYMid meet">
<metadata>
Created by potrace 1.14, written by Peter Selinger 2001-2017
</metadata>
<g transform="translate(0.000000,1200.000000) scale(0.100000,-0.100000)"
fill="#000000" stroke="none">
<path d="M0 6000 l0 -6000 6000 0 6000 0 0 6000 0 6000 -6000 0 -6000 0 0
-6000z m5539 2315 l71 -35 0 -956 c0 -840 2 -955 15 -950 18 7 687 390 737
422 l38 24 2 490 3 491 500 -293 500 -294 0 -103 0 -103 -335 -197 -335 -197
-3 -1237 -2 -1237 170 85 170 85 2 1061 3 1061 168 99 167 98 0 -1247 -1
-1247 -336 -195 c-184 -107 -371 -221 -415 -253 l-79 -57 -89 41 -90 42 -2
963 -3 964 -390 -225 -390 -224 -3 -495 c-1 -273 -6 -496 -10 -496 -4 0 -232
132 -507 293 l-500 293 0 103 0 103 315 184 c173 102 325 192 338 200 l22 14
0 1235 0 1235 -170 -85 -170 -85 0 -1060 0 -1059 -147 -87 c-82 -48 -158 -93
-171 -100 l-22 -15 2 1248 3 1247 342 201 c188 110 374 223 413 252 80 58 70
59 189 -2z"/>
<path d="M6730 7110 c0 -49 3 -90 8 -90 10 0 172 84 172 90 0 7 -155 90 -169
90 -7 0 -11 -30 -11 -90z"/>
<path d="M5998 6187 l-388 -222 0 -188 0 -189 63 35 c34 20 211 121 392 225
l330 190 3 186 c1 102 -1 186 -5 186 -5 0 -182 -100 -395 -223z"/>
<path d="M5178 4941 c-38 -20 -72 -41 -77 -46 -6 -7 23 -28 80 -58 l89 -48 0
95 c0 71 -3 96 -12 95 -7 -1 -43 -18 -80 -38z"/>
</g>
</svg>
