<?xml version="1.0" standalone="no"?>
<!DOCTYPE svg PUBLIC "-//W3C//DTD SVG 20010904//EN"
 "http://www.w3.org/TR/2001/REC-SVG-20010904/DTD/svg10.dtd">
<svg version="1.0" xmlns="http://www.w3.org/2000/svg"
 width="400.000000pt" height="400.000000pt" viewBox="0 0 400.000000 400.000000"
 preserveAspectRatio="xMidYMid meet">
<metadata>
Created by potrace 1.14, written by Peter Selinger 2001-2017
</metadata>
<g transform="translate(0.000000,400.000000) scale(0.100000,-0.100000)"
fill="#000000" stroke="none">
<path d="M1653 3231 c-21 -15 -117 -74 -213 -130 -96 -56 -178 -106 -183 -110
-4 -4 -6 -303 -5 -664 l3 -657 88 51 87 51 0 564 0 564 90 45 90 45 0 -658 0
-659 -180 -104 -179 -104 0 -55 0 -55 267 -156 267 -155 5 263 5 264 205 118
205 118 3 -512 2 -512 50 -21 49 -21 43 31 c23 17 121 77 218 134 l175 102 3
661 c1 364 0 661 -3 661 -2 0 -43 -23 -90 -50 l-85 -51 0 -564 0 -565 -90 -45
-90 -45 0 659 0 659 178 104 177 104 3 54 2 55 -267 156 -268 157 -5 -264 -5
-264 -207 -119 -208 -120 0 514 c0 401 -3 514 -12 518 -7 3 -29 12 -49 21 -36
15 -38 15 -76 -13z m790 -616 c20 -10 37 -21 37 -25 0 -3 -20 -16 -45 -28
l-45 -22 0 51 c0 28 3 49 8 47 4 -2 24 -12 45 -23z m-240 -596 c-4 -4 -84 -51
-178 -104 -93 -54 -185 -106 -203 -117 l-33 -20 3 103 3 102 205 118 205 118
3 -96 c1 -53 -1 -100 -5 -104z m-593 -609 l0 -50 -45 22 c-25 12 -45 25 -45
28 0 5 73 46 88 49 1 1 2 -21 2 -49z"/>
</g>
</svg>
