<?xml version="1.0" standalone="no"?>
<!DOCTYPE svg PUBLIC "-//W3C//DTD SVG 20010904//EN"
 "http://www.w3.org/TR/2001/REC-SVG-20010904/DTD/svg10.dtd">
<svg version="1.0" xmlns="http://www.w3.org/2000/svg"
 width="260.000000pt" height="260.000000pt" viewBox="0 0 260.000000 260.000000"
 preserveAspectRatio="xMidYMid meet">
<metadata>
Created by potrace 1.14, written by Peter Selinger 2001-2017
</metadata>
<g transform="translate(0.000000,260.000000) scale(0.100000,-0.100000)"
fill="#000000" stroke="none">
<path d="M850 1721 c-130 -42 -182 -121 -202 -305 -16 -147 1 -318 39 -393 58
-117 209 -162 375 -112 92 27 135 70 168 170 22 66 25 91 25 234 0 140 -3 168
-23 225 -27 78 -69 133 -125 162 -33 17 -63 22 -137 25 -52 1 -106 -1 -120 -6z
m281 -103 c29 -34 51 -87 44 -109 -10 -31 -37 -20 -50 21 -4 13 -25 40 -46 60
-22 20 -39 42 -39 49 0 22 68 6 91 -21z m-149 -122 c38 -28 58 -96 58 -197 0
-115 -15 -159 -61 -181 -38 -19 -63 -13 -89 20 -18 22 -20 39 -19 151 1 141 4
159 36 195 25 29 49 32 75 12z m206 -48 c-2 -13 -7 -23 -13 -23 -5 0 -11 10
-13 23 -2 15 2 22 13 22 11 0 15 -7 13 -22z"/>
<path d="M2141 1707 c-56 -28 -105 -89 -133 -163 -19 -52 -22 -80 -22 -239 -1
-163 1 -186 22 -245 27 -77 52 -108 118 -145 43 -24 60 -28 139 -29 77 -1 97
2 135 23 24 13 53 35 65 49 31 39 55 112 55 164 0 37 4 50 20 58 16 9 20 21
20 68 0 32 -5 63 -12 70 -8 8 -53 12 -134 12 -143 0 -154 -6 -154 -76 0 -46
25 -84 56 -84 11 0 14 -8 12 -32 -3 -31 -5 -33 -43 -33 -33 0 -43 5 -61 32
-56 83 -31 337 36 373 40 21 65 3 81 -58 l14 -57 58 -3 c51 -3 60 0 82 24 52
56 24 197 -52 264 -49 43 -75 50 -182 50 -59 0 -86 -5 -120 -23z m272 -58 c34
-26 55 -92 38 -113 -17 -21 -39 -9 -46 25 -4 16 -11 32 -16 35 -14 8 -30 54
-23 65 8 14 19 11 47 -12z m65 -166 c4 -24 -26 -40 -34 -18 -8 21 3 47 19 43
6 -3 13 -14 15 -25z m60 -211 c4 -36 -4 -41 -24 -14 -20 25 -18 54 4 50 11 -2
18 -14 20 -36z"/>
<path d="M408 1698 c-42 -37 -48 -59 -48 -187 l0 -121 -55 0 -55 0 0 129 c0
147 -8 167 -72 178 -61 9 -101 -3 -120 -38 -16 -28 -18 -66 -18 -379 l0 -348
34 -21 c46 -29 103 -27 141 3 l30 24 3 126 4 126 39 0 c21 0 42 0 47 0 4 0 8
-40 9 -89 1 -49 7 -108 13 -130 13 -49 54 -81 103 -81 44 0 96 28 102 55 3 11
6 176 8 367 l2 347 -26 27 c-38 38 -104 43 -141 12z m-193 -87 c0 -39 -20 -53
-27 -19 -3 13 -9 31 -13 41 -7 16 -4 18 16 15 20 -2 24 -9 24 -37z m317 -28
c8 -57 -4 -107 -25 -100 -14 4 -29 101 -20 135 10 43 37 22 45 -35z m2 -158
c-8 -20 -34 -27 -40 -10 -9 22 15 48 32 34 7 -6 10 -17 8 -24z"/>
<path d="M1410 1709 c-66 -27 -76 -62 -88 -329 -8 -181 -2 -397 13 -433 9 -22
75 -57 107 -57 39 0 84 35 92 70 3 18 6 94 7 169 0 75 3 129 6 121 15 -41 61
-133 100 -202 54 -94 112 -148 159 -148 45 0 84 19 89 44 19 83 25 185 25 419
0 296 -3 313 -60 337 -63 26 -124 8 -146 -46 -12 -29 -14 -63 -8 -185 4 -87 3
-149 -2 -149 -11 0 -52 87 -66 139 -6 20 -29 77 -53 127 -40 87 -44 91 -93
112 -28 12 -52 22 -54 21 -2 0 -14 -5 -28 -10z m119 -101 c20 -44 19 -58 -4
-58 -14 0 -55 63 -55 86 0 8 9 14 20 14 13 0 26 -13 39 -42z m351 12 c17 -32
8 -131 -12 -144 -9 -5 -21 -7 -25 -2 -10 9 -9 139 1 155 11 17 24 13 36 -9z
m-2 -202 c-4 -29 -38 -38 -38 -10 0 22 8 32 27 32 9 0 13 -8 11 -22z"/>
</g>
</svg>
