<?xml version="1.0" standalone="no"?>
<!DOCTYPE svg PUBLIC "-//W3C//DTD SVG 20010904//EN"
 "http://www.w3.org/TR/2001/REC-SVG-20010904/DTD/svg10.dtd">
<svg version="1.0" xmlns="http://www.w3.org/2000/svg"
 width="3850.000000pt" height="3850.000000pt" viewBox="0 0 3850.000000 3850.000000"
 preserveAspectRatio="xMidYMid meet">
<metadata>
Created by potrace 1.14, written by Peter Selinger 2001-2017
</metadata>
<g transform="translate(0.000000,3850.000000) scale(0.100000,-0.100000)"
fill="#000000" stroke="none">
<path d="M5432 38455 c37 -25 71 -45 76 -45 9 0 62 73 62 85 0 3 -46 5 -102 5
l-103 0 67 -45z"/>
<path d="M5727 38151 c-130 -193 -237 -352 -237 -355 0 -3 34 -6 75 -6 l75 0
0 -100 0 -100 -105 0 -104 0 -3 58 -3 57 -126 -185 c-69 -102 -160 -236 -202
-298 l-77 -112 0 -70 0 -70 -48 0 -48 0 -194 -287 c-107 -158 -260 -382 -339
-498 -79 -115 -146 -216 -148 -222 -4 -10 16 -13 81 -13 l86 0 0 -105 0 -106
-102 3 -103 3 -3 79 -3 78 -51 -73 c-28 -41 -120 -176 -204 -302 l-154 -227 0
-85 0 -84 -60 -3 -60 -3 -343 -505 -343 -505 98 -3 98 -3 0 -104 0 -105 -105
0 -104 0 -3 94 -3 94 -198 -292 -199 -293 -1 -109 -2 -109 -73 0 -72 0 -198
-290 c-109 -159 -339 -497 -511 -750 -172 -253 -323 -468 -334 -479 -12 -10
-20 -19 -17 -20 8 -2 -34 -65 -48 -71 -11 -4 -12 -2 -5 7 15 20 24 50 13 43
-6 -3 -10 -13 -10 -21 0 -17 -12 -18 -28 -2 -9 9 -11 7 -7 -10 2 -12 0 -24 -6
-27 -5 -4 -9 3 -9 14 0 29 -34 27 -47 -2 -9 -19 -8 -23 8 -23 12 0 15 4 9 12
-6 6 -7 14 -3 17 12 12 21 7 26 -15 5 -18 8 -19 21 -8 11 8 16 9 16 1 0 -6 3
-10 8 -10 40 7 42 2 42 -106 l0 -105 -90 -2 c-49 -1 -98 -2 -107 -2 -14 -1
-19 8 -21 42 -2 23 -8 42 -13 42 -6 0 -7 5 -4 10 3 6 1 10 -5 10 -6 0 -9 4 -5
9 3 5 1 12 -5 16 -9 5 -15 -15 -11 -38 1 -5 -3 -6 -9 -2 -6 3 -8 10 -5 15 10
16 -6 39 -23 33 -12 -5 -14 -2 -9 12 7 15 5 16 -9 4 -14 -12 -14 -14 2 -26 9
-7 22 -9 28 -6 6 4 3 -3 -8 -15 -17 -20 -43 -22 -31 -2 3 5 0 12 -7 17 -7 4
-20 17 -28 28 -14 18 -14 19 2 7 15 -12 17 -11 15 7 0 11 -6 19 -12 18 -5 -1
-9 4 -7 11 1 8 -2 11 -8 7 -6 -3 -8 -10 -5 -15 3 -5 1 -12 -5 -15 -6 -4 -10
-3 -9 2 1 4 1 15 0 23 -1 13 -3 13 -10 0 -6 -8 -7 -18 -5 -22 3 -4 -1 -8 -8
-8 -7 0 -31 -28 -53 -62 -22 -34 -106 -158 -187 -276 -82 -117 -148 -215 -148
-217 0 -3 43 -5 95 -5 l95 0 0 -110 0 -110 -110 0 -109 0 -3 89 -3 88 -197
-291 -198 -290 0 -103 0 -103 -55 0 -55 0 0 -199 0 -199 55 -7 55 -6 0 -100 0
-99 -55 0 -55 0 0 -205 0 -205 55 0 55 0 0 -105 0 -105 -55 0 -55 0 0 -202 0
-203 55 3 55 4 0 -106 0 -106 -55 0 -55 0 0 -205 0 -205 55 0 55 0 0 -106 0
-106 -55 4 -55 3 0 -202 0 -203 55 0 55 0 0 -105 0 -105 -55 0 -55 0 0 -205 0
-205 55 0 55 0 0 -100 0 -100 -55 0 -55 0 0 -205 0 -205 55 0 55 0 0 -105 0
-105 -55 0 -55 0 0 -205 0 -205 55 0 55 0 0 -100 0 -100 -55 0 -55 0 0 -205 0
-205 55 0 55 0 0 -105 0 -105 -55 0 -55 0 0 -202 0 -203 55 3 55 4 0 -106 0
-106 -55 0 -55 0 0 -205 0 -205 55 0 55 0 0 -105 0 -105 -55 0 -55 0 0 -200 0
-200 55 0 55 0 0 -105 0 -105 -55 0 -55 0 0 -205 0 -205 55 0 55 0 0 -106 0
-106 -55 4 -55 3 0 -202 0 -203 55 0 55 0 0 -105 0 -105 -55 0 -55 0 0 -205 0
-205 55 0 55 0 0 -100 0 -100 -55 0 -55 0 0 -205 0 -205 55 0 55 0 0 -105 0
-105 -55 0 -55 0 0 -205 0 -205 55 0 55 0 0 -100 0 -100 -55 0 -55 0 0 -205 0
-205 55 0 55 0 0 -105 0 -105 -55 0 -55 0 0 -202 0 -203 55 3 55 4 0 -106 0
-106 -55 0 -55 0 0 -205 0 -205 55 0 55 0 0 -105 0 -105 -55 0 -55 0 0 -200 0
-200 55 0 55 0 0 -105 0 -105 -55 0 -55 0 0 -205 0 -205 55 0 55 0 0 -106 0
-106 -55 4 -55 3 0 -202 0 -203 55 0 55 0 0 -105 0 -105 -55 0 -55 0 0 -205 0
-205 55 0 55 0 0 -100 0 -100 -55 0 -55 0 0 -7735 0 -7735 15705 0 15705 0 0
95 0 96 103 -3 102 -3 -1 -92 -2 -93 204 0 203 0 3 93 3 92 103 3 102 3 0 -96
0 -95 79 0 78 0 197 289 c108 159 196 292 196 295 0 3 -31 6 -70 6 l-70 0 0
105 0 105 100 0 100 0 0 -62 c0 -53 2 -60 14 -48 7 8 99 142 204 296 l191 282
3 73 3 74 50 3 50 3 340 501 c187 275 342 505 343 509 2 5 -35 9 -82 9 l-86 0
0 100 0 100 100 0 100 0 0 -77 c0 -68 2 -75 15 -63 7 8 100 141 204 295 l191
280 0 93 0 92 63 0 63 0 342 504 c188 278 342 507 342 510 0 3 -43 6 -95 6
l-95 0 0 105 0 105 100 0 100 0 0 -95 c0 -52 3 -95 8 -95 4 1 96 132 204 293
l198 292 0 107 0 108 73 0 73 0 240 352 c133 194 383 561 557 816 229 336 312
465 301 469 -11 4 -14 27 -14 104 l0 99 81 0 c44 0 89 5 99 10 23 12 35 -3 32
-42 -1 -15 3 -28 8 -28 6 0 8 5 4 12 -5 7 -3 8 5 3 8 -4 11 -20 8 -38 -4 -27
-3 -28 10 -12 7 11 13 14 13 8 0 -6 7 -14 16 -17 12 -5 15 -2 10 10 -5 14 -4
15 9 4 8 -7 13 -16 10 -20 -2 -4 6 -13 20 -20 13 -7 21 -18 18 -26 -3 -8 0
-14 6 -14 6 0 10 5 9 11 -2 6 5 13 15 14 11 2 14 -1 10 -8 -12 -20 -11 -34 2
-34 7 0 65 77 128 171 64 94 148 216 187 271 38 55 77 112 85 128 l16 27 -96
0 -95 0 0 105 0 105 110 0 110 0 0 -82 0 -83 20 25 c11 14 98 140 194 281
l175 257 3 108 3 109 74 5 74 5 93 135 93 135 1 15023 0 15022 -16268 0
-16268 0 -237 -349z m523 154 l0 -106 -102 3 -103 3 -3 89 c-2 49 -1 95 2 103
4 10 31 13 106 13 l100 0 0 -105z m620 0 l0 -105 -105 0 -105 0 0 105 0 105
105 0 105 0 0 -105z m-620 -615 l0 -100 -99 0 -100 0 -3 100 -3 100 103 0 102
0 0 -100z m620 0 l0 -100 -105 0 -105 0 0 100 0 100 105 0 105 0 0 -100z
m-1230 -615 l0 -105 -105 0 -105 0 0 105 0 105 105 0 105 0 0 -105z m610 0 l0
-105 -100 0 -100 0 0 105 0 105 100 0 100 0 0 -105z m618 3 l-3 -103 -102 -3
-103 -3 0 106 0 105 105 0 106 0 -3 -102z m-618 -613 l0 -105 -100 0 -100 0 0
100 0 99 73 4 c39 1 84 4 100 5 l27 2 0 -105z m618 -2 l3 -103 -106 0 -105 0
0 100 0 99 58 4 c31 2 77 3 102 3 l45 -1 3 -102z m-1848 -3 l0 -100 -100 0
-100 0 0 100 0 100 100 0 100 0 0 -100z m620 0 l0 -100 -105 0 -105 0 0 100 0
100 105 0 105 0 0 -100z m-620 -615 l0 -105 -100 0 -100 0 0 105 0 105 100 0
100 0 0 -105z m620 0 l0 -106 -102 3 -103 3 -3 103 -3 102 106 0 105 0 0 -105z
m610 0 l0 -105 -100 0 -100 0 0 105 0 105 100 0 100 0 0 -105z m618 3 l-3
-103 -100 0 -100 0 -3 103 -3 102 106 0 106 0 -3 -102z m-2458 -613 l0 -105
-105 0 -105 0 0 100 0 99 58 4 c31 2 78 4 105 5 l47 2 0 -105z m610 0 l0 -105
-100 0 -100 0 0 99 0 100 53 4 c28 2 73 4 100 5 l47 2 0 -105z m620 0 l0 -105
-105 0 -105 0 0 100 0 99 58 4 c31 2 78 4 105 5 l47 2 0 -105z m610 0 l0 -105
-100 0 -100 0 0 99 0 100 53 4 c28 2 73 4 100 5 l47 2 0 -105z m620 0 l0 -105
-105 0 -105 0 0 105 0 105 105 0 105 0 0 -105z m-3080 -620 l0 -105 -100 0
-100 0 0 105 0 105 100 0 100 0 0 -105z m620 -1 l0 -105 -67 2 c-38 1 -85 4
-105 7 l-38 5 0 98 0 99 105 0 105 0 0 -106z m610 1 c0 -121 13 -110 -123 -99
l-77 7 0 98 0 99 100 0 100 0 0 -105z m620 0 l0 -105 -28 0 c-16 0 -63 3 -105
6 l-77 7 0 98 0 99 105 0 105 0 0 -105z m610 0 c0 -121 13 -110 -123 -99 l-77
7 0 98 0 99 100 0 100 0 0 -105z m620 6 c0 -59 -4 -102 -10 -106 -6 -4 -54 -4
-105 0 l-95 7 0 99 0 99 105 0 105 0 0 -99z m-3080 -616 l0 -105 -100 0 -100
0 0 105 0 105 100 0 100 0 0 -105z m620 0 l0 -105 -105 0 -105 0 0 98 c0 54 3
102 7 105 3 4 51 7 105 7 l98 0 0 -105z m610 0 l0 -105 -100 0 -100 0 0 105 0
105 100 0 100 0 0 -105z m620 0 l0 -105 -105 0 -105 0 0 98 c0 54 3 102 7 105
3 4 51 7 105 7 l98 0 0 -105z m610 0 l0 -105 -100 0 -100 0 0 105 0 105 100 0
100 0 0 -105z m620 0 l0 -105 -105 0 -105 0 0 105 0 105 105 0 105 0 0 -105z
m-3690 -621 l0 -107 -77 7 c-42 3 -89 6 -105 6 l-28 0 0 100 0 100 105 0 105
0 0 -106z m610 0 l0 -107 -67 6 c-38 4 -83 7 -100 7 l-33 0 0 100 0 100 100 0
100 0 0 -106z m620 4 l0 -103 -105 3 -105 3 0 100 0 99 105 0 105 0 0 -102z
m610 2 l0 -100 -100 0 -100 0 0 100 0 100 100 0 100 0 0 -100z m620 0 l0 -100
-105 0 -105 0 0 100 0 100 105 0 105 0 0 -100z m610 0 l0 -100 -100 0 -100 0
0 100 0 100 100 0 100 0 0 -100z m620 0 l0 -100 -105 0 -105 0 0 100 0 100
105 0 105 0 0 -100z m-4300 -615 l0 -105 -105 0 -105 0 0 105 0 105 105 0 105
0 0 -105z m610 0 l0 -106 -102 3 -103 3 -3 89 c-2 49 -1 95 2 103 4 10 31 13
106 13 l100 0 0 -105z m620 0 l0 -105 -105 0 -105 0 0 105 0 105 105 0 105 0
0 -105z m610 0 l0 -105 -105 0 -105 0 0 105 0 105 105 0 105 0 0 -105z m610 0
l0 -105 -100 0 -100 0 0 105 0 105 100 0 100 0 0 -105z m620 0 l0 -105 -105 0
-105 0 0 105 0 105 105 0 105 0 0 -105z m610 0 l0 -105 -100 0 -100 0 0 105 0
105 100 0 100 0 0 -105z m620 0 l0 -105 -105 0 -105 0 0 105 0 105 105 0 105
0 0 -105z m-4920 -615 l0 -100 -100 0 -100 0 0 100 0 100 100 0 100 0 0 -100z
m620 0 l0 -100 -105 0 -105 0 0 100 0 100 105 0 105 0 0 -100z m610 0 l0 -100
-105 0 -105 0 0 100 0 100 105 0 105 0 0 -100z m620 0 l0 -100 -105 0 -105 0
0 100 0 100 105 0 105 0 0 -100z m610 0 l0 -100 -105 0 -105 0 0 100 0 100
105 0 105 0 0 -100z m610 0 l0 -100 -100 0 -100 0 0 100 0 100 100 0 100 0 0
-100z m620 0 l0 -100 -105 0 -105 0 0 100 0 100 105 0 105 0 0 -100z m610 0
l0 -100 -100 0 -100 0 0 100 0 100 100 0 100 0 0 -100z m620 0 l0 -100 -105 0
-105 0 0 100 0 100 105 0 105 0 0 -100z m-4920 -615 l0 -105 -100 0 -100 0 0
105 0 105 100 0 100 0 0 -105z m620 0 l0 -105 -105 0 -105 0 0 105 0 105 105
0 105 0 0 -105z m610 0 l0 -106 -102 3 -103 3 -3 89 c-2 49 -1 95 2 103 4 10
31 13 106 13 l100 0 0 -105z m618 3 l-3 -103 -102 -3 -103 -3 0 106 0 105 105
0 106 0 -3 -102z m612 -3 l0 -105 -105 0 -105 0 0 105 0 105 105 0 105 0 0
-105z m610 0 l0 -105 -100 0 -100 0 0 105 0 105 100 0 100 0 0 -105z m620 0
l0 -105 -105 0 -105 0 0 105 0 105 105 0 105 0 0 -105z m610 0 l0 -105 -100 0
-100 0 0 105 0 105 100 0 100 0 0 -105z m620 0 l0 -105 -105 0 -105 0 0 105 0
105 105 0 105 0 0 -105z m-5760 -41 c0 -8 -19 -13 -24 -6 -3 5 1 9 9 9 8 0 15
-2 15 -3z m-42 -29 c-3 -3 -9 2 -12 12 -6 14 -5 15 5 6 7 -7 10 -15 7 -18z
m42 -19 c0 -3 -4 -8 -10 -11 -5 -3 -10 -1 -10 4 0 6 5 11 10 11 6 0 10 -2 10
-4z m3910 -521 l0 -105 -100 0 -100 0 0 100 0 99 58 4 c31 2 76 4 100 5 l42 2
0 -105z m620 0 l0 -105 -105 0 -105 0 0 100 0 99 58 4 c31 2 78 4 105 5 l47 2
0 -105z m610 0 l0 -105 -100 0 -100 0 0 99 0 100 53 4 c28 2 73 4 100 5 l47 2
0 -105z m620 0 l0 -105 -105 0 -105 0 0 100 0 99 58 4 c31 2 78 4 105 5 l47 2
0 -105z m-5530 -5 l0 -100 -105 0 -105 0 0 100 0 100 105 0 105 0 0 -100z
m610 0 l0 -100 -100 0 -100 0 0 100 0 100 100 0 100 0 0 -100z m620 0 l0 -100
-105 0 -105 0 0 100 0 100 105 0 105 0 0 -100z m610 0 l0 -100 -105 0 -105 0
0 100 0 100 105 0 105 0 0 -100z m620 0 l0 -100 -105 0 -105 0 0 100 0 100
105 0 105 0 0 -100z m610 0 l0 -100 -105 0 -105 0 0 100 0 100 105 0 105 0 0
-100z m-3690 -615 l0 -105 -100 0 -100 0 0 105 0 105 100 0 100 0 0 -105z
m620 0 l0 -105 -105 0 -105 0 0 105 0 105 105 0 105 0 0 -105z m610 0 l0 -105
-100 0 -100 0 0 105 0 105 100 0 100 0 0 -105z m620 0 l0 -105 -105 0 -105 0
0 105 0 105 105 0 105 0 0 -105z m610 0 l0 -105 -100 0 -100 0 0 105 0 105
100 0 100 0 0 -105z m618 3 l-3 -103 -100 0 -100 0 -3 103 -3 102 106 0 106 0
-3 -102z m612 -3 l0 -106 -102 3 -103 3 -3 89 c-2 49 -1 95 2 103 4 10 31 13
106 13 l100 0 0 -105z m610 0 l0 -105 -100 0 -100 0 0 105 0 105 100 0 100 0
0 -105z m620 0 l0 -106 -102 3 -103 3 -3 103 -3 102 106 0 105 0 0 -105z m610
0 l0 -105 -100 0 -100 0 0 105 0 105 100 0 100 0 0 -105z m620 0 l0 -106 -102
3 -103 3 -3 103 -3 102 106 0 105 0 0 -105z m-6150 -610 l0 -105 -100 0 -100
0 0 100 0 99 73 4 c39 1 84 4 100 5 l27 2 0 -105z m620 0 l0 -105 -105 0 -105
0 0 100 0 99 58 4 c31 2 78 4 105 5 l47 2 0 -105z m610 0 l0 -105 -100 0 -100
0 0 99 0 100 53 4 c28 2 73 4 100 5 l47 2 0 -105z m618 -2 l3 -103 -106 0
-105 0 0 100 0 99 58 4 c31 2 77 3 102 3 l45 -1 3 -102z m612 2 l0 -105 -100
0 -100 0 0 99 0 100 53 4 c28 2 73 4 100 5 l47 2 0 -105z m618 -2 l3 -103
-106 0 -105 0 0 100 0 99 58 4 c31 2 77 3 102 3 l45 -1 3 -102z m612 2 l0
-105 -105 0 -105 0 0 100 0 99 58 4 c31 2 78 4 105 5 l47 2 0 -105z m610 0 l0
-105 -100 0 -100 0 0 99 c0 115 -8 108 118 110 l82 1 0 -105z m620 0 l0 -105
-105 0 -105 0 0 98 c0 54 3 102 7 105 3 4 51 7 105 7 l98 0 0 -105z m610 0 l0
-105 -100 0 -100 0 0 105 0 105 100 0 100 0 0 -105z m620 0 l0 -105 -105 0
-105 0 0 98 c0 54 3 102 7 105 3 4 51 7 105 7 l98 0 0 -105z m-6150 -620 l0
-105 -100 0 -100 0 0 105 0 105 100 0 100 0 0 -105z m620 0 l0 -106 -102 3
-103 3 -3 103 -3 102 106 0 105 0 0 -105z m610 0 l0 -105 -100 0 -100 0 0 105
0 105 100 0 100 0 0 -105z m620 0 l0 -106 -102 3 -103 3 -3 103 -3 102 106 0
105 0 0 -105z m610 0 c0 -121 13 -110 -123 -99 l-77 7 0 98 0 99 100 0 100 0
0 -105z m620 6 c0 -59 -4 -102 -10 -106 -6 -4 -54 -4 -105 0 l-95 7 0 99 0 99
105 0 105 0 0 -99z m610 -7 l0 -107 -77 7 c-42 3 -89 6 -105 6 l-28 0 0 100 0
100 105 0 105 0 0 -106z m610 0 l0 -107 -67 6 c-38 4 -83 7 -100 7 l-33 0 0
100 0 100 100 0 100 0 0 -106z m620 0 l0 -107 -77 7 c-42 3 -89 6 -105 6 l-28
0 0 100 0 100 105 0 105 0 0 -106z m610 1 c0 -121 13 -110 -123 -99 l-77 7 0
98 0 99 100 0 100 0 0 -105z m620 0 l0 -105 -28 0 c-16 0 -63 3 -105 6 l-77 7
0 98 0 99 105 0 105 0 0 -105z m-6150 -610 l0 -105 -100 0 -100 0 0 99 0 100
53 4 c28 2 73 4 100 5 l47 2 0 -105z m620 0 l0 -105 -105 0 -105 0 0 98 c0 54
3 102 7 105 3 4 51 7 105 7 l98 0 0 -105z m610 0 l0 -105 -100 0 -100 0 0 105
0 105 100 0 100 0 0 -105z m620 0 l0 -105 -105 0 -105 0 0 105 0 105 105 0
105 0 0 -105z m610 0 l0 -105 -100 0 -100 0 0 105 0 105 100 0 100 0 0 -105z
m618 -2 l3 -103 -106 0 -105 0 0 105 0 106 103 -3 102 -3 3 -102z m612 2 l0
-105 -105 0 -105 0 0 98 c0 54 3 102 7 105 3 4 51 7 105 7 l98 0 0 -105z m618
-2 l3 -103 -106 0 -105 0 0 105 0 106 103 -3 102 -3 3 -102z m612 2 l0 -105
-105 0 -105 0 0 105 0 105 105 0 105 0 0 -105z m610 0 l0 -105 -100 0 -100 0
0 105 0 105 100 0 100 0 0 -105z m620 0 l0 -105 -105 0 -105 0 0 105 0 105
105 0 105 0 0 -105z m13513 -499 c360 -78 1313 -337 1536 -418 78 -28 76 -22
90 -232 36 -505 54 -1627 54 -3356 0 -1642 -16 -2558 -49 -2914 -8 -83 -21
-98 -99 -121 -304 -88 -1523 -324 -1695 -328 l-75 -2 -7 100 c-3 55 -11 714
-17 1465 -15 1985 7 5605 35 5758 7 37 52 72 92 72 12 0 73 -11 135 -24z
m-2258 -15 c21 -42 35 -221 35 -461 0 -208 -21 -1393 -25 -1398 -1 -1 -126
-29 -278 -61 -383 -82 -624 -154 -939 -280 -1183 -472 -2117 -1179 -2859
-2163 -359 -477 -680 -1049 -924 -1648 -508 -1248 -643 -2570 -404 -3968 34
-202 35 -240 10 -290 -45 -89 -157 -173 -824 -621 -276 -185 -544 -367 -594
-404 -114 -82 -129 -90 -152 -82 -43 13 -76 101 -141 370 -342 1407 -380 2782
-114 4160 199 1032 743 2328 1356 3231 229 338 636 802 1140 1299 620 613 974
898 1513 1217 883 523 1789 869 2795 1067 310 60 295 58 347 60 37 1 44 -2 58
-28z m-17405 -106 c0 -121 13 -110 -123 -99 l-77 7 0 98 0 99 100 0 100 0 0
-105z m620 0 l0 -105 -28 0 c-16 0 -63 3 -105 6 l-77 7 0 98 0 99 105 0 105 0
0 -105z m610 0 c0 -121 13 -110 -123 -99 l-77 7 0 98 0 99 100 0 100 0 0 -105z
m620 0 l0 -105 -28 0 c-16 0 -63 3 -105 6 l-77 7 0 98 0 99 105 0 105 0 0
-105z m610 5 l0 -100 -100 0 -100 0 0 100 0 100 100 0 100 0 0 -100z m620 0
l0 -100 -105 0 -105 0 0 100 0 100 105 0 105 0 0 -100z m610 0 l0 -100 -105 0
-105 0 0 100 0 100 105 0 105 0 0 -100z m620 0 l0 -100 -105 0 -105 0 0 100 0
100 105 0 105 0 0 -100z m610 0 l0 -100 -105 0 -105 0 0 100 0 100 105 0 105
0 0 -100z m610 0 l0 -100 -100 0 -100 0 0 100 0 100 100 0 100 0 0 -100z m620
0 l0 -100 -105 0 -105 0 0 100 0 100 105 0 105 0 0 -100z m-6150 -615 l0 -105
-100 0 -100 0 0 105 0 105 100 0 100 0 0 -105z m620 0 l0 -105 -105 0 -105 0
0 105 0 105 105 0 105 0 0 -105z m610 0 l0 -105 -100 0 -100 0 0 105 0 105
100 0 100 0 0 -105z m620 0 l0 -105 -105 0 -105 0 0 105 0 105 105 0 105 0 0
-105z m610 0 l0 -105 -100 0 -100 0 0 105 0 105 100 0 100 0 0 -105z m620 0
l0 -105 -105 0 -105 0 0 105 0 105 105 0 105 0 0 -105z m610 0 l0 -106 -102 3
-103 3 -3 89 c-2 49 -1 95 2 103 4 10 31 13 106 13 l100 0 0 -105z m620 0 l0
-105 -105 0 -105 0 0 105 0 105 105 0 105 0 0 -105z m610 0 l0 -105 -105 0
-105 0 0 105 0 105 105 0 105 0 0 -105z m610 0 l0 -105 -100 0 -100 0 0 105 0
105 100 0 100 0 0 -105z m620 0 l0 -105 -105 0 -105 0 0 105 0 105 105 0 105
0 0 -105z m16330 -272 c240 -128 747 -482 1120 -781 677 -542 1259 -1175 1737
-1889 293 -436 554 -906 712 -1278 268 -631 599 -1626 589 -1769 l-3 -41 -90
-8 c-118 -12 -730 7 -1339 41 l-480 27 -52 180 c-200 691 -555 1369 -1082
2068 -249 331 -437 541 -926 1034 l-359 363 6 862 c6 775 17 1179 33 1231 7
23 25 18 134 -40z m-22480 -343 l0 -100 -100 0 -100 0 0 100 0 100 100 0 100
0 0 -100z m620 0 l0 -100 -105 0 -105 0 0 100 0 100 105 0 105 0 0 -100z m610
0 l0 -100 -100 0 -100 0 0 100 0 100 100 0 100 0 0 -100z m620 0 l0 -100 -105
0 -105 0 0 100 0 100 105 0 105 0 0 -100z m610 0 l0 -100 -100 0 -100 0 0 100
0 100 100 0 100 0 0 -100z m620 0 l0 -100 -105 0 -105 0 0 100 0 100 105 0
105 0 0 -100z m610 0 l0 -100 -100 0 -100 0 0 39 c0 21 -3 66 -6 100 l-7 61
107 0 106 0 0 -100z m620 0 l0 -100 -105 0 -105 0 0 100 0 100 105 0 105 0 0
-100z m610 0 l0 -100 -105 0 -105 0 0 100 0 100 105 0 105 0 0 -100z m610 0
l0 -100 -100 0 -100 0 0 100 0 100 100 0 100 0 0 -100z m620 0 l0 -100 -105 0
-105 0 0 100 0 100 105 0 105 0 0 -100z m-6142 -617 l3 -103 -106 0 -105 0 0
105 0 106 103 -3 102 -3 3 -102z m612 2 l0 -105 -105 0 -105 0 0 105 0 105
105 0 105 0 0 -105z m610 0 l0 -105 -100 0 -100 0 0 105 0 105 100 0 100 0 0
-105z m620 0 l0 -105 -105 0 -105 0 0 105 0 105 105 0 105 0 0 -105z m610 0
l0 -105 -100 0 -100 0 0 105 0 105 100 0 100 0 0 -105z m620 0 l0 -105 -105 0
-105 0 0 105 0 105 105 0 105 0 0 -105z m610 0 l0 -105 -100 0 -100 0 0 105 0
105 100 0 100 0 0 -105z m618 3 l-3 -103 -102 -3 -103 -3 0 106 0 105 105 0
106 0 -3 -102z m612 -3 l0 -106 -102 3 -103 3 -3 89 c-2 49 -1 95 2 103 4 10
31 13 106 13 l100 0 0 -105z m610 0 l0 -105 -100 0 -100 0 0 105 0 105 100 0
100 0 0 -105z m620 0 l0 -106 -102 3 -103 3 -3 103 -3 102 106 0 105 0 0 -105z
m-3072 -612 l3 -103 -106 0 -105 0 0 100 0 99 58 4 c31 2 77 3 102 3 l45 -1 3
-102z m612 2 l0 -105 -100 0 -100 0 0 99 0 100 53 4 c28 2 73 4 100 5 l47 2 0
-105z m618 -2 l3 -103 -106 0 -105 0 0 100 0 99 58 4 c31 2 77 3 102 3 l45 -1
3 -102z m612 2 l0 -105 -105 0 -105 0 0 100 0 99 58 4 c31 2 78 4 105 5 l47 2
0 -105z m610 0 l0 -105 -100 0 -100 0 0 100 0 99 58 4 c31 2 76 4 100 5 l42 2
0 -105z m620 0 l0 -105 -105 0 -105 0 0 100 0 99 58 4 c31 2 78 4 105 5 l47 2
0 -105z m-6140 -5 l0 -100 -105 0 -105 0 0 100 0 100 105 0 105 0 0 -100z
m610 0 l0 -100 -105 0 -105 0 0 100 0 100 105 0 105 0 0 -100z m610 0 l0 -100
-100 0 -100 0 0 100 0 100 100 0 100 0 0 -100z m620 0 l0 -100 -105 0 -105 0
0 100 0 100 105 0 105 0 0 -100z m610 0 l0 -100 -100 0 -100 0 0 100 0 100
100 0 100 0 0 -100z m-2452 -612 l-3 -103 -102 -3 -103 -3 0 106 0 105 105 0
106 0 -3 -102z m612 -3 l0 -105 -105 0 -105 0 0 105 0 105 105 0 105 0 0 -105z
m610 0 l0 -105 -100 0 -100 0 0 105 0 105 100 0 100 0 0 -105z m620 0 l0 -106
-102 3 -103 3 -3 103 -3 102 106 0 105 0 0 -105z m610 0 l0 -105 -100 0 -100
0 0 105 0 105 100 0 100 0 0 -105z m620 0 l0 -106 -102 3 -103 3 -3 103 -3
102 106 0 105 0 0 -105z m610 0 l0 -105 -100 0 -100 0 0 105 0 105 100 0 100
0 0 -105z m618 3 l-3 -103 -100 0 -100 0 -3 103 -3 102 106 0 106 0 -3 -102z
m612 -3 l0 -106 -102 3 -103 3 -3 103 -3 102 106 0 105 0 0 -105z m612 8 c3
-54 2 -102 -2 -107 -5 -4 -51 -5 -104 -1 l-96 7 0 99 0 99 99 0 99 0 4 -97z
m618 -9 l0 -107 -77 7 c-42 3 -89 6 -105 6 l-28 0 0 100 0 100 105 0 105 0 0
-106z m-6142 -611 l3 -103 -106 0 -105 0 0 100 0 99 58 4 c31 2 77 3 102 3
l45 -1 3 -102z m612 2 l0 -105 -105 0 -105 0 0 100 0 99 58 4 c31 2 78 4 105
5 l47 2 0 -105z m610 0 l0 -105 -100 0 -100 0 0 100 0 99 58 4 c31 2 76 4 100
5 l42 2 0 -105z m620 0 l0 -105 -105 0 -105 0 0 100 0 99 58 4 c31 2 78 4 105
5 l47 2 0 -105z m610 0 l0 -105 -100 0 -100 0 0 99 0 100 53 4 c28 2 73 4 100
5 l47 2 0 -105z m620 0 l0 -105 -105 0 -105 0 0 98 c0 54 3 102 7 105 3 4 51
7 105 7 l98 0 0 -105z m610 0 l0 -105 -100 0 -100 0 0 105 0 105 100 0 100 0
0 -105z m620 0 l0 -105 -105 0 -105 0 0 105 0 105 105 0 105 0 0 -105z m610 0
l0 -105 -105 0 -105 0 0 98 c0 54 3 102 7 105 3 4 51 7 105 7 l98 0 0 -105z
m618 -2 l3 -103 -106 0 -105 0 0 105 0 106 103 -3 102 -3 3 -102z m612 2 l0
-105 -105 0 -105 0 0 98 c0 54 3 102 7 105 3 4 51 7 105 7 l98 0 0 -105z
m11295 -2076 l0 -2051 -480 -169 c-777 -274 -1317 -449 -1385 -449 -7 0 -10
683 -10 1879 l0 1879 121 101 c153 130 248 200 396 293 227 144 549 308 783
401 172 68 553 187 565 176 5 -6 9 -777 10 -2060z m-17437 1459 l-3 -103 -100
0 -100 0 -3 103 -3 102 106 0 106 0 -3 -102z m612 -3 l0 -106 -102 3 -103 3
-3 103 -3 102 106 0 105 0 0 -105z m610 0 c0 -121 13 -110 -123 -99 l-77 7 0
98 0 99 100 0 100 0 0 -105z m620 0 l0 -105 -28 0 c-16 0 -63 3 -105 6 l-77 7
0 98 0 99 105 0 105 0 0 -105z m610 0 c0 -121 13 -110 -123 -99 l-77 7 0 98 0
99 100 0 100 0 0 -105z m620 0 l0 -105 -28 0 c-16 0 -63 3 -105 6 l-77 7 0 98
0 99 105 0 105 0 0 -105z m610 0 c0 -121 13 -110 -123 -99 l-77 7 0 98 0 99
100 0 100 0 0 -105z m620 6 c0 -59 -4 -102 -10 -106 -6 -4 -54 -4 -105 0 l-95
7 0 99 0 99 105 0 105 0 0 -99z m610 -7 l0 -107 -77 7 c-42 3 -89 6 -105 6
l-28 0 0 100 0 100 105 0 105 0 0 -106z m620 6 l0 -100 -105 0 -105 0 0 100 0
100 105 0 105 0 0 -100z m610 0 l0 -100 -105 0 -105 0 0 100 0 100 105 0 105
0 0 -100z m-6142 -617 l3 -103 -106 0 -105 0 0 105 0 106 103 -3 102 -3 3
-102z m612 2 l0 -105 -105 0 -105 0 0 98 c0 54 3 102 7 105 3 4 51 7 105 7
l98 0 0 -105z m610 0 l0 -105 -100 0 -100 0 0 105 0 105 100 0 100 0 0 -105z
m620 0 l0 -105 -105 0 -105 0 0 98 c0 54 3 102 7 105 3 4 51 7 105 7 l98 0 0
-105z m610 0 l0 -105 -100 0 -100 0 0 105 0 105 100 0 100 0 0 -105z m620 0
l0 -105 -105 0 -105 0 0 105 0 105 105 0 105 0 0 -105z m610 0 l0 -105 -100 0
-100 0 0 105 0 105 100 0 100 0 0 -105z m620 0 l0 -105 -105 0 -105 0 0 105 0
105 105 0 105 0 0 -105z m610 0 l0 -106 -102 3 -103 3 -3 89 c-2 49 -1 95 2
103 4 10 31 13 106 13 l100 0 0 -105z m620 0 l0 -105 -105 0 -105 0 0 105 0
105 105 0 105 0 0 -105z m610 0 l0 -105 -105 0 -105 0 0 105 0 105 105 0 105
0 0 -105z m24743 -105 c0 -41 -2 -87 -2 -102 l-1 -28 -100 0 -100 0 0 105 0
106 103 -3 102 -3 -2 -75z m617 -25 l0 -105 -105 0 -105 0 0 105 0 105 105 0
105 0 0 -105z m610 0 l0 -105 -100 0 -100 0 0 105 0 105 100 0 100 0 0 -105z
m620 0 l0 -105 -105 0 -105 0 0 105 0 105 105 0 105 0 0 -105z m610 0 l0 -105
-100 0 -100 0 0 105 0 105 100 0 100 0 0 -105z m620 0 l0 -105 -105 0 -105 0
0 105 0 105 105 0 105 0 0 -105z m610 0 l0 -105 -100 0 -100 0 0 105 0 105
100 0 100 0 0 -105z m620 0 l0 -105 -105 0 -105 0 0 105 0 105 105 0 105 0 0
-105z m610 0 l0 -105 -105 0 -105 0 0 105 0 105 105 0 105 0 0 -105z m613 25
c0 -41 -2 -87 -2 -102 l-1 -28 -100 0 -100 0 0 105 0 106 103 -3 102 -3 -2
-75z m617 -25 l0 -105 -105 0 -105 0 0 105 0 105 105 0 105 0 0 -105z m610 0
l0 -105 -100 0 -100 0 0 105 0 105 100 0 100 0 0 -105z m-37640 -484 c0 -59
-4 -102 -10 -106 -6 -4 -54 -4 -105 0 l-95 7 0 99 0 99 105 0 105 0 0 -99z
m610 -7 l0 -107 -77 7 c-42 3 -89 6 -105 6 l-28 0 0 100 0 100 105 0 105 0 0
-106z m610 6 l0 -100 -100 0 -100 0 0 100 0 100 100 0 100 0 0 -100z m620 0
l0 -100 -105 0 -105 0 0 100 0 100 105 0 105 0 0 -100z m610 0 l0 -100 -100 0
-100 0 0 100 0 100 100 0 100 0 0 -100z m620 0 l0 -100 -105 0 -105 0 0 100 0
100 105 0 105 0 0 -100z m610 0 l0 -100 -100 0 -100 0 0 100 0 100 100 0 100
0 0 -100z m620 0 l0 -100 -105 0 -105 0 0 100 0 100 105 0 105 0 0 -100z m610
0 l0 -100 -100 0 -100 0 0 100 0 100 100 0 100 0 0 -100z m620 0 l0 -100 -105
0 -105 0 0 100 0 100 105 0 105 0 0 -100z m610 0 l0 -100 -105 0 -105 0 0 100
0 100 105 0 105 0 0 -100z m24746 -112 c-2 -46 -5 -91 -5 -100 -1 -16 -13 -18
-101 -18 l-100 0 0 100 0 100 106 0 105 0 -5 -82z m614 -18 l0 -100 -105 0
-105 0 0 100 0 100 105 0 105 0 0 -100z m610 0 l0 -100 -100 0 -100 0 0 100 0
100 100 0 100 0 0 -100z m620 0 l0 -100 -105 0 -105 0 0 100 0 100 105 0 105
0 0 -100z m610 0 l0 -100 -100 0 -100 0 0 100 0 100 100 0 100 0 0 -100z m620
0 l0 -100 -105 0 -105 0 0 100 0 100 105 0 105 0 0 -100z m610 0 l0 -100 -100
0 -100 0 0 100 0 100 100 0 100 0 0 -100z m620 0 l0 -100 -105 0 -105 0 0 100
0 100 105 0 105 0 0 -100z m610 0 l0 -100 -105 0 -105 0 0 100 0 100 105 0
105 0 0 -100z m616 18 c-2 -46 -5 -91 -5 -100 -1 -16 -13 -18 -101 -18 l-100
0 0 100 0 100 106 0 105 0 -5 -82z m614 -18 l0 -100 -105 0 -105 0 0 100 0
100 105 0 105 0 0 -100z m610 0 l0 -100 -100 0 -100 0 0 100 0 100 100 0 100
0 0 -100z m-37640 -485 l0 -105 -105 0 -105 0 0 105 0 105 105 0 105 0 0 -105z
m610 0 l0 -106 -102 3 -103 3 -3 89 c-2 49 -1 95 2 103 4 10 31 13 106 13
l100 0 0 -105z m618 -2 l3 -103 -106 0 -105 0 0 105 0 106 103 -3 102 -3 3
-102z m612 2 l0 -105 -105 0 -105 0 0 105 0 105 105 0 105 0 0 -105z m610 0
l0 -105 -100 0 -100 0 0 105 0 105 100 0 100 0 0 -105z m620 0 l0 -105 -105 0
-105 0 0 105 0 105 105 0 105 0 0 -105z m610 0 l0 -105 -100 0 -100 0 0 105 0
105 100 0 100 0 0 -105z m620 0 l0 -105 -105 0 -105 0 0 105 0 105 105 0 105
0 0 -105z m610 0 l0 -105 -100 0 -100 0 0 105 0 105 100 0 100 0 0 -105z m618
3 l-3 -103 -102 -3 -103 -3 0 106 0 105 105 0 106 0 -3 -102z m612 -3 l0 -106
-102 3 -103 3 -3 89 c-2 49 -1 95 2 103 4 10 31 13 106 13 l100 0 0 -105z
m24750 -62 c0 -21 -3 -68 -7 -105 l-6 -68 -98 0 -99 0 0 105 0 105 105 0 105
0 0 -37z m608 -65 l-3 -103 -100 0 -100 0 -3 103 -3 102 106 0 106 0 -3 -102z
m612 -3 l0 -105 -100 0 -100 0 0 105 0 105 100 0 100 0 0 -105z m618 3 l-3
-103 -102 -3 -103 -3 0 106 0 105 105 0 106 0 -3 -102z m612 -3 l0 -105 -100
0 -100 0 0 105 0 105 100 0 100 0 0 -105z m618 3 l-3 -103 -102 -3 -103 -3 0
106 0 105 105 0 106 0 -3 -102z m612 -3 l0 -105 -100 0 -100 0 0 105 0 105
100 0 100 0 0 -105z m618 3 l-3 -103 -102 -3 -103 -3 0 106 0 105 105 0 106 0
-3 -102z m612 -3 l0 -106 -102 3 -103 3 -3 103 -3 102 106 0 105 0 0 -105z
m620 68 c0 -21 -3 -68 -7 -105 l-6 -68 -98 0 -99 0 0 105 0 105 105 0 105 0 0
-37z m608 -65 l-3 -103 -102 -3 -103 -3 0 106 0 105 105 0 106 0 -3 -102z
m612 -3 l0 -105 -100 0 -100 0 0 105 0 105 100 0 100 0 0 -105z m-32112 -482
l3 -103 -106 0 -105 0 0 100 0 99 78 4 c141 6 127 17 130 -100z m612 2 l0
-105 -105 0 -105 0 0 100 0 99 58 4 c31 2 78 4 105 5 l47 2 0 -105z m-6140 -5
l0 -100 -105 0 -105 0 0 100 0 100 105 0 105 0 0 -100z m610 0 l0 -100 -105 0
-105 0 0 100 0 100 105 0 105 0 0 -100z m620 0 l0 -100 -105 0 -105 0 0 100 0
100 105 0 105 0 0 -100z m610 0 l0 -100 -105 0 -105 0 0 100 0 100 105 0 105
0 0 -100z m610 0 l0 -100 -100 0 -100 0 0 100 0 100 100 0 100 0 0 -100z m620
0 l0 -100 -105 0 -105 0 0 100 0 100 105 0 105 0 0 -100z m610 0 l0 -100 -100
0 -100 0 0 100 0 100 100 0 100 0 0 -100z m620 0 l0 -100 -105 0 -105 0 0 100
0 100 105 0 105 0 0 -100z m610 0 l0 -100 -100 0 -100 0 0 100 0 100 100 0
100 0 0 -100z m25951 -30 l29 0 -4 -72 c-2 -40 -5 -85 -5 -100 l-1 -28 -100 0
-100 0 0 106 0 107 77 -7 c42 -3 89 -6 104 -6z m607 0 l32 0 0 -100 0 -100
-105 0 -105 0 0 98 c0 54 3 102 8 106 4 5 36 5 72 2 36 -3 80 -6 98 -6z m610
0 l32 0 0 -100 0 -100 -100 0 -100 0 0 106 0 107 68 -6 c37 -4 82 -7 100 -7z
m620 0 l32 0 0 -100 0 -100 -105 0 -105 0 0 98 c0 54 3 102 8 106 4 5 36 5 72
2 36 -3 80 -6 98 -6z m610 0 l32 0 0 -100 0 -100 -100 0 -100 0 0 106 0 107
68 -6 c37 -4 82 -7 100 -7z m624 0 l28 0 0 -100 0 -100 -105 0 -105 0 0 106 0
107 77 -7 c42 -3 89 -6 105 -6z m606 0 l32 0 0 -100 0 -100 -100 0 -100 0 0
106 0 107 68 -6 c37 -4 82 -7 100 -7z m624 0 l28 0 0 -100 0 -100 -105 0 -105
0 0 106 0 107 77 -7 c42 -3 89 -6 105 -6z m606 0 l32 0 0 -100 0 -100 -105 0
-105 0 0 98 c0 54 3 102 8 106 4 5 36 5 72 2 36 -3 80 -6 98 -6z m623 0 l29 0
-4 -72 c-2 -40 -5 -85 -5 -100 l-1 -28 -100 0 -100 0 0 106 0 107 77 -7 c42
-3 89 -6 104 -6z m607 0 l32 0 0 -100 0 -100 -105 0 -105 0 0 98 c0 54 3 102
8 106 4 5 36 5 72 2 36 -3 80 -6 98 -6z m610 0 l32 0 0 -100 0 -100 -100 0
-100 0 0 106 0 107 68 -6 c37 -4 82 -7 100 -7z m-8778 -369 c233 -11 358 -25
374 -41 6 -6 8 -10 5 -10 -3 0 -30 -4 -60 -10 -90 -15 -288 -28 -844 -55 -866
-41 -988 -50 -1297 -92 l-198 -27 0 -791 c0 -434 -5 -916 -10 -1070 -31 -857
-118 -1317 -418 -2190 -304 -885 -537 -1366 -999 -2060 -356 -533 -655 -898
-1107 -1351 -427 -426 -809 -743 -1271 -1053 -849 -571 -1666 -928 -2761
-1206 -360 -92 -496 -116 -691 -122 l-163 -6 0 927 0 926 23 5 c687 163 842
205 1065 285 472 168 1046 458 1469 741 615 412 1080 836 1486 1357 834 1069
1276 2087 1437 3314 45 346 63 613 81 1178 18 589 8 710 -63 734 -65 23 -514
-79 -1098 -247 -607 -176 -1189 -365 -2037 -663 l-423 -149 0 -1801 0 -1801
-114 -106 c-173 -159 -360 -277 -791 -496 -409 -209 -673 -317 -870 -356 -70
-14 -135 -25 -144 -25 -17 0 -18 81 -25 1555 -6 1400 -17 2129 -31 2143 -11
12 -110 -33 -475 -215 -479 -238 -696 -354 -1112 -591 l-328 -186 0 -3264 0
-3265 -152 6 c-171 6 -293 26 -563 92 -674 166 -1392 416 -1863 650 -1161 575
-2023 1273 -2931 2372 -370 448 -651 860 -651 954 0 139 1048 1089 1855 1681
1350 990 3057 1891 4965 2618 2211 843 4617 1420 6885 1650 449 45 672 61
1009 70 417 11 2553 4 2836 -9z m-28830 -216 l0 -105 -105 0 -105 0 0 105 0
105 105 0 105 0 0 -105z m610 0 l0 -106 -102 3 -103 3 -3 89 c-2 49 -1 95 2
103 4 10 31 13 106 13 l100 0 0 -105z m618 3 l-3 -103 -102 -3 -103 -3 0 106
0 105 105 0 106 0 -3 -102z m612 -3 l0 -105 -105 0 -105 0 0 105 0 105 105 0
105 0 0 -105z m610 0 l0 -105 -100 0 -100 0 0 105 0 105 100 0 100 0 0 -105z
m620 0 l0 -105 -105 0 -105 0 0 105 0 105 105 0 105 0 0 -105z m610 0 l0 -105
-100 0 -100 0 0 105 0 105 100 0 100 0 0 -105z m620 0 l0 -106 -102 3 -103 3
-3 103 -3 102 106 0 105 0 0 -105z m610 0 l0 -105 -100 0 -100 0 0 105 0 105
100 0 100 0 0 -105z m618 3 l-3 -103 -100 0 -100 0 -3 103 -3 102 106 0 106 0
-3 -102z m612 -3 l0 -106 -102 3 -103 3 -3 89 c-2 49 -1 95 2 103 4 10 31 13
106 13 l100 0 0 -105z m24746 -121 c-3 -54 -7 -98 -8 -100 -2 -1 -47 -6 -101
-10 l-97 -7 0 107 0 106 106 0 105 0 -5 -96z m614 -3 l0 -99 -95 -7 c-51 -4
-99 -4 -105 0 -6 4 -10 47 -10 106 l0 99 105 0 105 0 0 -99z m610 -1 c0 -98 0
-100 -23 -100 -13 0 -58 -3 -100 -6 l-77 -7 0 107 0 106 100 0 100 0 0 -100z
m620 1 l0 -99 -95 -7 c-51 -4 -99 -4 -105 0 -6 4 -10 47 -10 106 l0 99 105 0
105 0 0 -99z m610 -1 c0 -98 0 -100 -23 -100 -13 0 -58 -3 -100 -6 l-77 -7 0
107 0 106 100 0 100 0 0 -100z m620 1 l0 -98 -77 -7 c-42 -3 -89 -6 -105 -6
l-28 0 0 105 0 105 105 0 105 0 0 -99z m610 -1 c0 -98 0 -100 -23 -100 -13 0
-58 -3 -100 -6 l-77 -7 0 107 0 106 100 0 100 0 0 -100z m620 1 l0 -98 -77 -7
c-42 -3 -89 -6 -105 -6 l-28 0 0 105 0 105 105 0 105 0 0 -99z m610 0 l0 -99
-95 -7 c-51 -4 -99 -4 -105 0 -6 4 -10 47 -10 106 l0 99 105 0 105 0 0 -99z
m616 3 c-3 -54 -7 -98 -8 -100 -2 -1 -47 -6 -101 -10 l-97 -7 0 107 0 106 106
0 105 0 -5 -96z m614 -3 l0 -99 -95 -7 c-51 -4 -99 -4 -105 0 -6 4 -10 47 -10
106 l0 99 105 0 105 0 0 -99z m610 -1 c0 -98 0 -100 -23 -100 -13 0 -58 -3
-100 -6 l-77 -7 0 107 0 106 100 0 100 0 0 -100z m-36410 -491 l0 -99 -105 0
-105 0 0 100 0 99 98 3 c53 2 100 2 105 0 4 -2 7 -48 7 -103z m610 6 l0 -105
-105 0 -105 0 0 100 0 99 58 4 c31 2 78 4 105 5 l47 2 0 -105z m610 0 l0 -105
-100 0 -100 0 0 100 0 99 58 4 c31 2 76 4 100 5 l42 2 0 -105z m620 0 l0 -105
-105 0 -105 0 0 100 0 99 58 4 c31 2 78 4 105 5 l47 2 0 -105z m610 0 l0 -105
-100 0 -100 0 0 99 0 100 53 4 c28 2 73 4 100 5 l47 2 0 -105z m620 0 l0 -105
-105 0 -105 0 0 100 0 99 58 4 c31 2 78 4 105 5 l47 2 0 -105z m610 0 l0 -105
-100 0 -100 0 0 99 0 100 53 4 c28 2 73 4 100 5 l47 2 0 -105z m620 0 l0 -105
-105 0 -105 0 0 100 0 99 58 4 c31 2 78 4 105 5 l47 2 0 -105z m610 0 l0 -105
-105 0 -105 0 0 98 c0 54 3 102 7 105 3 4 51 7 105 7 l98 0 0 -105z m-6140 -5
l0 -100 -105 0 -105 0 0 100 0 100 105 0 105 0 0 -100z m610 0 l0 -100 -105 0
-105 0 0 100 0 100 105 0 105 0 0 -100z m30276 -100 c0 -41 -2 -87 -4 -102
l-4 -28 -99 0 -99 0 0 105 0 106 103 -3 102 -3 1 -75z m614 -25 l0 -105 -105
0 -105 0 0 98 c0 54 3 102 7 105 3 4 51 7 105 7 l98 0 0 -105z m610 0 l0 -105
-100 0 -100 0 0 105 0 105 100 0 100 0 0 -105z m618 -2 l3 -103 -106 0 -105 0
0 105 0 106 103 -3 102 -3 3 -102z m612 2 l0 -105 -100 0 -100 0 0 105 0 105
100 0 100 0 0 -105z m618 -2 l3 -103 -106 0 -105 0 0 105 0 106 103 -3 102 -3
3 -102z m612 2 l0 -105 -100 0 -100 0 0 105 0 105 100 0 100 0 0 -105z m618
-2 l3 -103 -106 0 -105 0 0 105 0 106 103 -3 102 -3 3 -102z m612 2 l0 -105
-105 0 -105 0 0 98 c0 54 3 102 7 105 3 4 51 7 105 7 l98 0 0 -105z m616 25
c0 -41 -2 -87 -4 -102 l-4 -28 -99 0 -99 0 0 105 0 106 103 -3 102 -3 1 -75z
m612 -27 l3 -103 -106 0 -105 0 0 105 0 106 103 -3 102 -3 3 -102z m612 2 l0
-105 -100 0 -100 0 0 105 0 105 100 0 100 0 0 -105z m-37640 -490 l0 -106
-102 3 -103 3 -3 103 -3 102 106 0 105 0 0 -105z m610 0 l0 -105 -100 0 -100
0 0 105 0 105 100 0 100 0 0 -105z m618 3 l-3 -103 -100 0 -100 0 -3 103 -3
102 106 0 106 0 -3 -102z m612 -3 l0 -106 -102 3 -103 3 -3 89 c-2 49 -1 95 2
103 4 10 31 13 106 13 l100 0 0 -105z m610 0 l0 -105 -100 0 -100 0 0 105 0
105 100 0 100 0 0 -105z m620 0 l0 -106 -102 3 -103 3 -3 103 -3 102 106 0
105 0 0 -105z m610 0 l0 -106 -92 5 c-51 2 -96 5 -100 5 -5 1 -8 46 -8 101 l0
100 100 0 100 0 0 -105z m620 0 l0 -105 -28 0 c-16 0 -63 3 -105 6 l-77 7 0
98 0 99 105 0 105 0 0 -105z m610 0 c0 -121 13 -110 -123 -99 l-77 7 0 98 0
99 100 0 100 0 0 -105z m620 6 c0 -59 -4 -102 -10 -106 -6 -4 -54 -4 -105 0
l-95 7 0 99 0 99 105 0 105 0 0 -99z m610 -7 l0 -107 -77 7 c-42 3 -89 6 -105
6 l-28 0 0 100 0 100 105 0 105 0 0 -106z m24745 -106 c-2 -46 -4 -91 -5 -100
0 -16 -12 -18 -100 -18 l-100 0 0 100 0 100 105 0 104 0 -4 -82z m615 -18 l0
-100 -105 0 -105 0 0 100 0 100 105 0 105 0 0 -100z m610 0 l0 -100 -100 0
-100 0 0 100 0 100 100 0 100 0 0 -100z m620 0 l0 -100 -105 0 -105 0 0 100 0
100 105 0 105 0 0 -100z m610 0 l0 -100 -100 0 -100 0 0 100 0 100 100 0 100
0 0 -100z m620 0 l0 -100 -105 0 -105 0 0 100 0 100 105 0 105 0 0 -100z m610
0 l0 -100 -100 0 -100 0 0 100 0 100 100 0 100 0 0 -100z m620 0 l0 -100 -105
0 -105 0 0 100 0 100 105 0 105 0 0 -100z m610 0 l0 -100 -105 0 -105 0 0 100
0 100 105 0 105 0 0 -100z m615 18 c-2 -46 -4 -91 -5 -100 0 -16 -12 -18 -100
-18 l-100 0 0 100 0 100 105 0 104 0 -4 -82z m615 -18 l0 -100 -105 0 -105 0
0 100 0 100 105 0 105 0 0 -100z m610 0 l0 -100 -100 0 -100 0 0 100 0 100
100 0 100 0 0 -100z m-37642 -487 l3 -103 -106 0 -105 0 0 100 0 99 58 4 c31
2 77 3 102 3 l45 -1 3 -102z m612 2 l0 -105 -100 0 -100 0 0 99 0 100 53 4
c28 2 73 4 100 5 l47 2 0 -105z m618 -2 l3 -103 -106 0 -105 0 0 100 0 99 58
4 c31 2 77 3 102 3 l45 -1 3 -102z m612 2 l0 -105 -105 0 -105 0 0 98 c0 54 3
102 7 105 3 4 51 7 105 7 l98 0 0 -105z m610 0 l0 -105 -100 0 -100 0 0 105 0
105 100 0 100 0 0 -105z m620 0 l0 -105 -105 0 -105 0 0 98 c0 54 3 102 7 105
3 4 51 7 105 7 l98 0 0 -105z m610 0 l0 -105 -100 0 -100 0 0 105 0 105 100 0
100 0 0 -105z m620 0 l0 -105 -105 0 -105 0 0 98 c0 54 3 102 7 105 3 4 51 7
105 7 l98 0 0 -105z m610 0 l0 -105 -100 0 -100 0 0 105 0 105 100 0 100 0 0
-105z m620 0 l0 -105 -105 0 -105 0 0 105 0 105 105 0 105 0 0 -105z m610 0
l0 -105 -105 0 -105 0 0 98 c0 54 3 102 7 105 3 4 51 7 105 7 l98 0 0 -105z
m24744 -85 c-1 -30 -2 -76 -3 -102 l-1 -48 -100 0 -100 0 0 105 0 106 103 -3
102 -3 -1 -55z m616 -45 l0 -105 -105 0 -105 0 0 105 0 105 105 0 105 0 0
-105z m610 0 l0 -105 -100 0 -100 0 0 105 0 105 100 0 100 0 0 -105z m620 0
l0 -105 -105 0 -105 0 0 105 0 105 105 0 105 0 0 -105z m610 0 l0 -105 -100 0
-100 0 0 105 0 105 100 0 100 0 0 -105z m620 0 l0 -105 -105 0 -105 0 0 105 0
105 105 0 105 0 0 -105z m610 0 l0 -105 -100 0 -100 0 0 105 0 105 100 0 100
0 0 -105z m620 0 l0 -105 -105 0 -105 0 0 105 0 105 105 0 105 0 0 -105z m610
0 l0 -105 -105 0 -105 0 0 105 0 105 105 0 105 0 0 -105z m614 45 c-1 -30 -2
-76 -3 -102 l-1 -48 -100 0 -100 0 0 105 0 106 103 -3 102 -3 -1 -55z m616
-45 l0 -105 -105 0 -105 0 0 105 0 105 105 0 105 0 0 -105z m610 0 l0 -105
-100 0 -100 0 0 105 0 105 100 0 100 0 0 -105z m-37640 -484 c0 -59 -4 -102
-10 -106 -6 -4 -54 -4 -105 0 l-95 7 0 99 0 99 105 0 105 0 0 -99z m610 -6 c0
-121 13 -110 -123 -99 l-77 7 0 98 0 99 100 0 100 0 0 -105z m620 6 c0 -59 -4
-102 -10 -106 -6 -4 -54 -4 -105 0 l-95 7 0 99 0 99 105 0 105 0 0 -99z m610
-7 l0 -107 -77 7 c-42 3 -89 6 -105 6 l-28 0 0 100 0 100 105 0 105 0 0 -106z
m610 0 l0 -107 -67 6 c-38 4 -83 7 -100 7 l-33 0 0 100 0 100 100 0 100 0 0
-106z m620 0 l0 -107 -77 7 c-42 3 -89 6 -105 6 l-28 0 0 100 0 100 105 0 105
0 0 -106z m610 4 l0 -103 -100 3 -100 3 0 100 0 99 100 0 100 0 0 -102z m620
2 l0 -100 -105 0 -105 0 0 100 0 100 105 0 105 0 0 -100z m610 0 l0 -100 -100
0 -100 0 0 100 0 100 100 0 100 0 0 -100z m620 0 l0 -100 -105 0 -105 0 0 100
0 100 105 0 105 0 0 -100z m610 0 l0 -100 -100 0 -100 0 0 100 0 100 100 0
100 0 0 -100z m24746 -130 l-1 -100 -102 0 -103 0 0 100 0 100 104 0 103 0 -1
-100z m614 0 l0 -100 -105 0 -105 0 0 100 0 100 105 0 105 0 0 -100z m610 0
l0 -100 -100 0 -100 0 0 100 0 100 100 0 100 0 0 -100z m620 0 l0 -100 -105 0
-105 0 0 100 0 100 105 0 105 0 0 -100z m610 0 l0 -100 -100 0 -100 0 0 100 0
100 100 0 100 0 0 -100z m620 0 l0 -100 -105 0 -105 0 0 100 0 100 105 0 105
0 0 -100z m610 0 l0 -100 -100 0 -100 0 0 100 0 100 100 0 100 0 0 -100z m620
0 l0 -100 -105 0 -105 0 0 100 0 100 105 0 105 0 0 -100z m610 0 l0 -100 -105
0 -105 0 0 100 0 100 105 0 105 0 0 -100z m616 0 l-1 -100 -102 0 -103 0 0
100 0 100 104 0 103 0 -1 -100z m614 0 l0 -100 -105 0 -105 0 0 100 0 100 105
0 105 0 0 -100z m610 0 l0 -100 -100 0 -100 0 0 100 0 100 100 0 100 0 0 -100z
m-37640 -485 l0 -105 -105 0 -105 0 0 105 0 105 105 0 105 0 0 -105z m610 0
l0 -105 -100 0 -100 0 0 105 0 105 100 0 100 0 0 -105z m618 -2 l3 -103 -106
0 -105 0 0 105 0 106 103 -3 102 -3 3 -102z m612 2 l0 -105 -105 0 -105 0 0
98 c0 54 3 102 7 105 3 4 51 7 105 7 l98 0 0 -105z m620 0 l0 -105 -105 0
-105 0 0 105 0 105 105 0 105 0 0 -105z m610 0 l0 -105 -105 0 -105 0 0 105 0
105 105 0 105 0 0 -105z m610 0 l0 -105 -100 0 -100 0 0 105 0 105 100 0 100
0 0 -105z m620 0 l0 -105 -105 0 -105 0 0 105 0 105 105 0 105 0 0 -105z m610
0 l0 -105 -100 0 -100 0 0 105 0 105 100 0 100 0 0 -105z m620 0 l0 -105 -105
0 -105 0 0 105 0 105 105 0 105 0 0 -105z m610 0 l0 -105 -100 0 -100 0 0 105
0 105 100 0 100 0 0 -105z m24744 -105 c-1 -41 -2 -87 -3 -102 l-1 -28 -100 0
-100 0 0 105 0 106 103 -3 102 -3 -1 -75z m616 -25 l0 -105 -105 0 -105 0 0
105 0 105 105 0 105 0 0 -105z m610 0 l0 -105 -100 0 -100 0 0 105 0 105 100
0 100 0 0 -105z m620 0 l0 -105 -105 0 -105 0 0 105 0 105 105 0 105 0 0 -105z
m610 0 l0 -105 -100 0 -100 0 0 105 0 105 100 0 100 0 0 -105z m620 0 l0 -105
-105 0 -105 0 0 105 0 105 105 0 105 0 0 -105z m610 0 l0 -105 -100 0 -100 0
0 105 0 105 100 0 100 0 0 -105z m620 0 l0 -105 -105 0 -105 0 0 105 0 105
105 0 105 0 0 -105z m610 0 l0 -105 -105 0 -105 0 0 105 0 105 105 0 105 0 0
-105z m614 25 c-1 -41 -2 -87 -3 -102 l-1 -28 -100 0 -100 0 0 105 0 106 103
-3 102 -3 -1 -75z m616 -25 l0 -105 -105 0 -105 0 0 105 0 105 105 0 105 0 0
-105z m610 0 l0 -105 -100 0 -100 0 0 105 0 105 100 0 100 0 0 -105z m-37640
-485 l0 -100 -105 0 -105 0 0 100 0 100 105 0 105 0 0 -100z m610 0 l0 -100
-100 0 -100 0 0 100 0 100 100 0 100 0 0 -100z m620 0 l0 -100 -105 0 -105 0
0 100 0 100 105 0 105 0 0 -100z m610 0 l0 -100 -105 0 -105 0 0 100 0 100
105 0 105 0 0 -100z m620 0 l0 -100 -105 0 -105 0 0 100 0 100 105 0 105 0 0
-100z m610 0 l0 -100 -105 0 -105 0 0 100 0 100 105 0 105 0 0 -100z m610 0
l0 -100 -100 0 -100 0 0 100 0 100 100 0 100 0 0 -100z m620 0 l0 -100 -105 0
-105 0 0 100 0 100 105 0 105 0 0 -100z m610 0 l0 -100 -100 0 -100 0 0 100 0
100 100 0 100 0 0 -100z m620 0 l0 -100 -105 0 -105 0 0 100 0 100 105 0 105
0 0 -100z m610 0 l0 -100 -100 0 -100 0 0 100 0 100 100 0 100 0 0 -100z
m24722 -30 l28 0 -4 -72 c-2 -40 -4 -85 -5 -100 l-1 -28 -100 0 -100 0 0 106
0 107 77 -7 c42 -3 89 -6 105 -6z m606 0 l32 0 0 -100 0 -100 -105 0 -105 0 0
98 c0 54 3 102 8 106 4 5 36 5 72 2 36 -3 80 -6 98 -6z m610 0 l32 0 0 -100 0
-100 -100 0 -100 0 0 106 0 107 68 -6 c37 -4 82 -7 100 -7z m620 0 l32 0 0
-100 0 -100 -105 0 -105 0 0 98 c0 54 3 102 8 106 4 5 36 5 72 2 36 -3 80 -6
98 -6z m610 0 l32 0 0 -100 0 -100 -100 0 -100 0 0 106 0 107 68 -6 c37 -4 82
-7 100 -7z m624 0 l28 0 0 -100 0 -100 -105 0 -105 0 0 106 0 107 77 -7 c42
-3 89 -6 105 -6z m606 0 l32 0 0 -100 0 -100 -100 0 -100 0 0 106 0 107 68 -6
c37 -4 82 -7 100 -7z m624 0 l28 0 0 -100 0 -100 -105 0 -105 0 0 106 0 107
77 -7 c42 -3 89 -6 105 -6z m606 0 l32 0 0 -100 0 -100 -105 0 -105 0 0 98 c0
54 3 102 8 106 4 5 36 5 72 2 36 -3 80 -6 98 -6z m624 0 l28 0 -4 -72 c-2 -40
-4 -85 -5 -100 l-1 -28 -100 0 -100 0 0 106 0 107 77 -7 c42 -3 89 -6 105 -6z
m606 0 l32 0 0 -100 0 -100 -105 0 -105 0 0 98 c0 54 3 102 8 106 4 5 36 5 72
2 36 -3 80 -6 98 -6z m610 0 l32 0 0 -100 0 -100 -100 0 -100 0 0 106 0 107
68 -6 c37 -4 82 -7 100 -7z m-37608 -585 l0 -105 -105 0 -105 0 0 105 0 105
105 0 105 0 0 -105z m610 0 l0 -105 -100 0 -100 0 0 105 0 105 100 0 100 0 0
-105z m620 0 l0 -105 -105 0 -105 0 0 105 0 105 105 0 105 0 0 -105z m610 0
l0 -106 -102 3 -103 3 -3 89 c-2 49 -1 95 2 103 4 10 31 13 106 13 l100 0 0
-105z m618 3 l-3 -103 -102 -3 -103 -3 0 106 0 105 105 0 106 0 -3 -102z m612
-3 l0 -105 -105 0 -105 0 0 105 0 105 105 0 105 0 0 -105z m610 0 l0 -105
-100 0 -100 0 0 105 0 105 100 0 100 0 0 -105z m620 0 l0 -105 -105 0 -105 0
0 105 0 105 105 0 105 0 0 -105z m610 0 l0 -105 -100 0 -100 0 0 105 0 105
100 0 100 0 0 -105z m620 0 l0 -105 -105 0 -105 0 0 105 0 105 105 0 105 0 0
-105z m610 0 l0 -105 -100 0 -100 0 0 105 0 105 100 0 100 0 0 -105z m24747
-122 c-4 -54 -7 -101 -7 -105 0 -5 -45 -8 -100 -8 l-100 0 0 105 0 105 106 0
107 0 -6 -97z m611 -5 l-3 -103 -100 0 -100 0 -3 103 -3 102 106 0 106 0 -3
-102z m612 -3 l0 -105 -100 0 -100 0 0 105 0 105 100 0 100 0 0 -105z m618 3
l-3 -103 -102 -3 -103 -3 0 106 0 105 105 0 106 0 -3 -102z m612 -3 l0 -105
-100 0 -100 0 0 105 0 105 100 0 100 0 0 -105z m618 3 l-3 -103 -102 -3 -103
-3 0 106 0 105 105 0 106 0 -3 -102z m612 -3 l0 -105 -100 0 -100 0 0 105 0
105 100 0 100 0 0 -105z m618 3 l-3 -103 -102 -3 -103 -3 0 106 0 105 105 0
106 0 -3 -102z m612 -3 l0 -106 -102 3 -103 3 -3 103 -3 102 106 0 105 0 0
-105z m617 8 c-4 -54 -7 -101 -7 -105 0 -5 -45 -8 -100 -8 l-100 0 0 105 0
105 106 0 107 0 -6 -97z m611 -5 l-3 -103 -102 -3 -103 -3 0 106 0 105 105 0
106 0 -3 -102z m612 -3 l0 -105 -100 0 -100 0 0 105 0 105 100 0 100 0 0 -105z
m-33340 -480 l0 -105 -105 0 -105 0 0 100 0 99 58 4 c31 2 78 4 105 5 l47 2 0
-105z m610 0 l0 -105 -100 0 -100 0 0 99 0 100 53 4 c28 2 73 4 100 5 l47 2 0
-105z m620 0 l0 -105 -105 0 -105 0 0 100 0 99 58 4 c31 2 78 4 105 5 l47 2 0
-105z m610 0 l0 -105 -100 0 -100 0 0 99 0 100 53 4 c28 2 73 4 100 5 l47 2 0
-105z m-6140 -5 l0 -100 -105 0 -105 0 0 100 0 100 105 0 105 0 0 -100z m610
0 l0 -100 -100 0 -100 0 0 100 0 100 100 0 100 0 0 -100z m620 0 l0 -100 -105
0 -105 0 0 100 0 100 105 0 105 0 0 -100z m610 0 l0 -100 -99 0 -98 0 -7 46
c-3 26 -6 71 -6 100 l0 54 105 0 105 0 0 -100z m620 0 l0 -100 -105 0 -105 0
0 100 0 100 105 0 105 0 0 -100z m610 0 l0 -100 -105 0 -105 0 0 100 0 100
105 0 105 0 0 -100z m610 0 l0 -100 -100 0 -100 0 0 100 0 100 100 0 100 0 0
-100z m27204 -105 c-1 -44 -2 -90 -3 -102 -1 -22 -4 -23 -101 -23 l-100 0 0
105 0 106 103 -3 102 -3 -1 -80z m616 -20 l0 -105 -105 0 -105 0 0 98 c0 54 3
102 7 105 3 4 51 7 105 7 l98 0 0 -105z m610 0 l0 -105 -100 0 -100 0 0 105 0
105 100 0 100 0 0 -105z m618 -2 l3 -103 -106 0 -105 0 0 105 0 106 103 -3
102 -3 3 -102z m612 2 l0 -105 -100 0 -100 0 0 105 0 105 100 0 100 0 0 -105z
m618 -2 l3 -103 -106 0 -105 0 0 105 0 106 103 -3 102 -3 3 -102z m612 2 l0
-105 -100 0 -100 0 0 105 0 105 100 0 100 0 0 -105z m618 -2 l3 -103 -106 0
-105 0 0 105 0 106 103 -3 102 -3 3 -102z m612 2 l0 -105 -105 0 -105 0 0 98
c0 54 3 102 7 105 3 4 51 7 105 7 l98 0 0 -105z m614 20 c-1 -44 -2 -90 -3
-102 -1 -22 -4 -23 -101 -23 l-100 0 0 105 0 106 103 -3 102 -3 -1 -80z m614
-22 l3 -103 -106 0 -105 0 0 105 0 106 103 -3 102 -3 3 -102z m612 2 l0 -105
-100 0 -100 0 0 105 0 105 100 0 100 0 0 -105z m-6755 -612 c-3 -54 -7 -98 -8
-99 -1 -2 -46 -6 -100 -10 l-97 -7 0 107 0 106 105 0 106 0 -6 -97z m615 -2
l0 -99 -95 -7 c-51 -4 -99 -4 -105 0 -6 4 -10 47 -10 106 l0 99 105 0 105 0 0
-99z m610 -1 c0 -98 0 -100 -23 -100 -13 0 -58 -3 -100 -6 l-77 -7 0 107 0
106 100 0 100 0 0 -100z m620 1 l0 -99 -95 -7 c-51 -4 -99 -4 -105 0 -6 4 -10
47 -10 106 l0 99 105 0 105 0 0 -99z m610 -1 c0 -98 0 -100 -23 -100 -13 0
-58 -3 -100 -6 l-77 -7 0 107 0 106 100 0 100 0 0 -100z m620 1 l0 -98 -77 -7
c-42 -3 -89 -6 -105 -6 l-28 0 0 105 0 105 105 0 105 0 0 -99z m610 -1 c0 -98
0 -100 -23 -100 -13 0 -58 -3 -100 -6 l-77 -7 0 107 0 106 100 0 100 0 0 -100z
m620 1 l0 -98 -77 -7 c-42 -3 -89 -6 -105 -6 l-28 0 0 105 0 105 105 0 105 0
0 -99z m610 0 l0 -99 -95 -7 c-51 -4 -99 -4 -105 0 -6 4 -10 47 -10 106 l0 99
105 0 105 0 0 -99z m615 2 c-3 -54 -7 -98 -8 -99 -1 -2 -46 -6 -100 -10 l-97
-7 0 107 0 106 105 0 106 0 -6 -97z m615 -2 l0 -99 -95 -7 c-51 -4 -99 -4
-105 0 -6 4 -10 47 -10 106 l0 99 105 0 105 0 0 -99z m610 -1 c0 -98 0 -100
-23 -100 -13 0 -58 -3 -100 -6 l-77 -7 0 107 0 106 100 0 100 0 0 -100z
m-6757 -600 c0 -47 -2 -93 -2 -102 -1 -16 -13 -18 -101 -18 l-100 0 0 105 0
106 103 -3 102 -3 -2 -85z m617 -15 l0 -105 -105 0 -105 0 0 98 c0 54 3 102 7
105 3 4 51 7 105 7 l98 0 0 -105z m610 0 l0 -105 -100 0 -100 0 0 105 0 105
100 0 100 0 0 -105z m620 0 l0 -105 -105 0 -105 0 0 105 0 105 105 0 105 0 0
-105z m610 0 l0 -105 -100 0 -100 0 0 105 0 105 100 0 100 0 0 -105z m620 0
l0 -105 -105 0 -105 0 0 105 0 105 105 0 105 0 0 -105z m610 0 l0 -105 -100 0
-100 0 0 105 0 105 100 0 100 0 0 -105z m618 -2 l3 -103 -106 0 -105 0 0 105
0 106 103 -3 102 -3 3 -102z m612 2 l0 -105 -105 0 -105 0 0 98 c0 54 3 102 7
105 3 4 51 7 105 7 l98 0 0 -105z m613 15 c0 -47 -2 -93 -2 -102 -1 -16 -13
-18 -101 -18 l-100 0 0 105 0 106 103 -3 102 -3 -2 -85z m617 -15 l0 -105
-105 0 -105 0 0 105 0 105 105 0 105 0 0 -105z m610 0 l0 -105 -100 0 -100 0
0 105 0 105 100 0 100 0 0 -105z m-6754 -615 l-1 -100 -102 0 -103 0 0 100 0
100 104 0 103 0 -1 -100z m614 0 l0 -100 -105 0 -105 0 0 100 0 100 105 0 105
0 0 -100z m610 0 l0 -100 -100 0 -100 0 0 100 0 100 100 0 100 0 0 -100z m620
0 l0 -100 -105 0 -105 0 0 100 0 100 105 0 105 0 0 -100z m610 0 l0 -100 -100
0 -100 0 0 100 0 100 100 0 100 0 0 -100z m620 0 l0 -100 -105 0 -105 0 0 100
0 100 105 0 105 0 0 -100z m610 0 l0 -100 -100 0 -100 0 0 100 0 100 100 0
100 0 0 -100z m620 0 l0 -100 -105 0 -105 0 0 100 0 100 105 0 105 0 0 -100z
m610 0 l0 -100 -105 0 -105 0 0 100 0 100 105 0 105 0 0 -100z m616 0 l-1
-100 -102 0 -103 0 0 100 0 100 104 0 103 0 -1 -100z m614 0 l0 -100 -105 0
-105 0 0 100 0 100 105 0 105 0 0 -100z m610 0 l0 -100 -100 0 -100 0 0 100 0
100 100 0 100 0 0 -100z m-6756 -570 c-1 -30 -2 -76 -2 -102 l-2 -48 -100 0
-100 0 0 105 0 106 103 -3 102 -3 -1 -55z m616 -45 l0 -105 -105 0 -105 0 0
105 0 105 105 0 105 0 0 -105z m610 0 l0 -105 -100 0 -100 0 0 105 0 105 100
0 100 0 0 -105z m620 0 l0 -105 -105 0 -105 0 0 105 0 105 105 0 105 0 0 -105z
m610 0 l0 -105 -100 0 -100 0 0 105 0 105 100 0 100 0 0 -105z m620 0 l0 -105
-105 0 -105 0 0 105 0 105 105 0 105 0 0 -105z m610 0 l0 -105 -100 0 -100 0
0 105 0 105 100 0 100 0 0 -105z m620 0 l0 -105 -105 0 -105 0 0 105 0 105
105 0 105 0 0 -105z m610 0 l0 -105 -105 0 -105 0 0 105 0 105 105 0 105 0 0
-105z m614 45 c-1 -30 -2 -76 -2 -102 l-2 -48 -100 0 -100 0 0 105 0 106 103
-3 102 -3 -1 -55z m616 -45 l0 -105 -105 0 -105 0 0 105 0 105 105 0 105 0 0
-105z m610 0 l0 -105 -100 0 -100 0 0 105 0 105 100 0 100 0 0 -105z m-6754
-592 c-2 -43 -4 -88 -5 -100 -1 -22 -4 -23 -101 -23 l-100 0 0 100 0 100 105
0 104 0 -3 -77z m614 -23 l0 -100 -105 0 -105 0 0 100 0 100 105 0 105 0 0
-100z m610 0 l0 -100 -100 0 -100 0 0 100 0 100 100 0 100 0 0 -100z m620 0
l0 -100 -105 0 -105 0 0 100 0 100 105 0 105 0 0 -100z m610 0 l0 -100 -100 0
-100 0 0 100 0 100 100 0 100 0 0 -100z m620 0 l0 -100 -105 0 -105 0 0 100 0
100 105 0 105 0 0 -100z m610 0 l0 -100 -100 0 -100 0 0 100 0 100 100 0 100
0 0 -100z m620 0 l0 -100 -105 0 -105 0 0 100 0 100 105 0 105 0 0 -100z m610
0 l0 -100 -105 0 -105 0 0 100 0 100 105 0 105 0 0 -100z m616 23 c-2 -43 -4
-88 -5 -100 -1 -22 -4 -23 -101 -23 l-100 0 0 100 0 100 105 0 104 0 -3 -77z
m614 -23 l0 -100 -105 0 -105 0 0 100 0 100 105 0 105 0 0 -100z m610 0 l0
-100 -100 0 -100 0 0 100 0 100 100 0 100 0 0 -100z m-6756 -590 c-1 -41 -2
-87 -3 -102 l-1 -28 -100 0 -100 0 0 105 0 106 103 -3 102 -3 -1 -75z m616
-25 l0 -105 -105 0 -105 0 0 105 0 105 105 0 105 0 0 -105z m610 0 l0 -105
-100 0 -100 0 0 105 0 105 100 0 100 0 0 -105z m620 0 l0 -105 -105 0 -105 0
0 105 0 105 105 0 105 0 0 -105z m610 0 l0 -105 -100 0 -100 0 0 105 0 105
100 0 100 0 0 -105z m620 0 l0 -105 -105 0 -105 0 0 105 0 105 105 0 105 0 0
-105z m610 0 l0 -105 -100 0 -100 0 0 105 0 105 100 0 100 0 0 -105z m620 0
l0 -105 -105 0 -105 0 0 105 0 105 105 0 105 0 0 -105z m610 0 l0 -105 -105 0
-105 0 0 105 0 105 105 0 105 0 0 -105z m614 25 c-1 -41 -2 -87 -3 -102 l-1
-28 -100 0 -100 0 0 105 0 106 103 -3 102 -3 -1 -75z m616 -25 l0 -105 -105 0
-105 0 0 105 0 105 105 0 105 0 0 -105z m610 0 l0 -105 -100 0 -100 0 0 105 0
105 100 0 100 0 0 -105z m-6778 -515 l28 0 -4 -72 c-2 -40 -4 -85 -5 -100 l-1
-28 -100 0 -100 0 0 106 0 107 77 -7 c42 -3 89 -6 105 -6z m606 0 l32 0 0
-100 0 -100 -105 0 -105 0 0 98 c0 54 3 102 8 106 4 5 36 5 72 2 36 -3 80 -6
98 -6z m610 0 l32 0 0 -100 0 -100 -100 0 -100 0 0 106 0 107 68 -6 c37 -4 82
-7 100 -7z m620 0 l32 0 0 -100 0 -100 -105 0 -105 0 0 98 c0 54 3 102 8 106
4 5 36 5 72 2 36 -3 80 -6 98 -6z m610 0 l32 0 0 -100 0 -100 -100 0 -100 0 0
106 0 107 68 -6 c37 -4 82 -7 100 -7z m624 0 l28 0 0 -100 0 -100 -105 0 -105
0 0 106 0 107 77 -7 c42 -3 89 -6 105 -6z m606 0 l32 0 0 -100 0 -100 -100 0
-100 0 0 106 0 107 68 -6 c37 -4 82 -7 100 -7z m624 0 l28 0 0 -100 0 -100
-105 0 -105 0 0 106 0 107 77 -7 c42 -3 89 -6 105 -6z m606 0 l32 0 0 -100 0
-100 -105 0 -105 0 0 98 c0 54 3 102 8 106 4 5 36 5 72 2 36 -3 80 -6 98 -6z
m624 0 l28 0 -4 -72 c-2 -40 -4 -85 -5 -100 l-1 -28 -100 0 -100 0 0 106 0
107 77 -7 c42 -3 89 -6 105 -6z m606 0 l32 0 0 -100 0 -100 -105 0 -105 0 0
98 c0 54 3 102 8 106 4 5 36 5 72 2 36 -3 80 -6 98 -6z m610 0 l32 0 0 -100 0
-100 -100 0 -100 0 0 106 0 107 68 -6 c37 -4 82 -7 100 -7z m-6721 -692 c-3
-46 -6 -93 -6 -105 -1 -22 -4 -23 -101 -23 l-100 0 0 105 0 105 106 0 106 0
-5 -82z m611 -20 l-3 -103 -100 0 -100 0 -3 103 -3 102 106 0 106 0 -3 -102z
m612 -3 l0 -105 -100 0 -100 0 0 105 0 105 100 0 100 0 0 -105z m618 3 l-3
-103 -102 -3 -103 -3 0 106 0 105 105 0 106 0 -3 -102z m612 -3 l0 -105 -100
0 -100 0 0 105 0 105 100 0 100 0 0 -105z m618 3 l-3 -103 -102 -3 -103 -3 0
106 0 105 105 0 106 0 -3 -102z m612 -3 l0 -105 -100 0 -100 0 0 105 0 105
100 0 100 0 0 -105z m618 3 l-3 -103 -102 -3 -103 -3 0 106 0 105 105 0 106 0
-3 -102z m612 -3 l0 -106 -102 3 -103 3 -3 103 -3 102 106 0 105 0 0 -105z
m617 23 c-3 -46 -6 -93 -6 -105 -1 -22 -4 -23 -101 -23 l-100 0 0 105 0 105
106 0 106 0 -5 -82z m611 -20 l-3 -103 -102 -3 -103 -3 0 106 0 105 105 0 106
0 -3 -102z m612 -3 l0 -105 -100 0 -100 0 0 105 0 105 100 0 100 0 0 -105z
m-6757 -590 c-1 -44 -2 -90 -2 -102 -1 -22 -4 -23 -101 -23 l-100 0 0 105 0
106 103 -3 102 -3 -2 -80z m617 -20 l0 -105 -105 0 -105 0 0 98 c0 54 3 102 7
105 3 4 51 7 105 7 l98 0 0 -105z m610 0 l0 -105 -100 0 -100 0 0 105 0 105
100 0 100 0 0 -105z m618 -2 l3 -103 -106 0 -105 0 0 105 0 106 103 -3 102 -3
3 -102z m612 2 l0 -105 -100 0 -100 0 0 105 0 105 100 0 100 0 0 -105z m618
-2 l3 -103 -106 0 -105 0 0 105 0 106 103 -3 102 -3 3 -102z m612 2 l0 -105
-100 0 -100 0 0 105 0 105 100 0 100 0 0 -105z m618 -2 l3 -103 -106 0 -105 0
0 105 0 106 103 -3 102 -3 3 -102z m612 2 l0 -105 -105 0 -105 0 0 98 c0 54 3
102 7 105 3 4 51 7 105 7 l98 0 0 -105z m613 20 c-1 -44 -2 -90 -2 -102 -1
-22 -4 -23 -101 -23 l-100 0 0 105 0 106 103 -3 102 -3 -2 -80z m615 -22 l3
-103 -106 0 -105 0 0 105 0 106 103 -3 102 -3 3 -102z m612 2 l0 -105 -100 0
-100 0 0 105 0 105 100 0 100 0 0 -105z m-6754 -611 c-3 -53 -7 -98 -8 -100
-2 -1 -47 -6 -101 -10 l-97 -7 0 107 0 106 105 0 106 0 -5 -96z m614 -3 l0
-99 -95 -7 c-51 -4 -99 -4 -105 0 -6 4 -10 47 -10 106 l0 99 105 0 105 0 0
-99z m610 -1 c0 -98 0 -100 -23 -100 -13 0 -58 -3 -100 -6 l-77 -7 0 107 0
106 100 0 100 0 0 -100z m620 1 l0 -99 -95 -7 c-51 -4 -99 -4 -105 0 -6 4 -10
47 -10 106 l0 99 105 0 105 0 0 -99z m610 -1 c0 -98 0 -100 -23 -100 -13 0
-58 -3 -100 -6 l-77 -7 0 107 0 106 100 0 100 0 0 -100z m620 1 l0 -98 -77 -7
c-42 -3 -89 -6 -105 -6 l-28 0 0 105 0 105 105 0 105 0 0 -99z m610 -1 c0 -98
0 -100 -23 -100 -13 0 -58 -3 -100 -6 l-77 -7 0 107 0 106 100 0 100 0 0 -100z
m620 1 l0 -98 -77 -7 c-42 -3 -89 -6 -105 -6 l-28 0 0 105 0 105 105 0 105 0
0 -99z m610 0 l0 -99 -95 -7 c-51 -4 -99 -4 -105 0 -6 4 -10 47 -10 106 l0 99
105 0 105 0 0 -99z m616 3 c-3 -53 -7 -98 -8 -100 -2 -1 -47 -6 -101 -10 l-97
-7 0 107 0 106 105 0 106 0 -5 -96z m614 -3 l0 -99 -95 -7 c-51 -4 -99 -4
-105 0 -6 4 -10 47 -10 106 l0 99 105 0 105 0 0 -99z m610 -1 c0 -98 0 -100
-23 -100 -13 0 -58 -3 -100 -6 l-77 -7 0 107 0 106 100 0 100 0 0 -100z
m-6757 -600 c-1 -47 -2 -93 -2 -102 -1 -16 -13 -18 -101 -18 l-100 0 0 105 0
106 103 -3 102 -3 -2 -85z m617 -15 l0 -105 -105 0 -105 0 0 105 0 105 105 0
105 0 0 -105z m610 0 l0 -105 -100 0 -100 0 0 105 0 105 100 0 100 0 0 -105z
m620 0 l0 -105 -105 0 -105 0 0 105 0 105 105 0 105 0 0 -105z m610 0 l0 -105
-100 0 -100 0 0 105 0 105 100 0 100 0 0 -105z m620 0 l0 -105 -105 0 -105 0
0 105 0 105 105 0 105 0 0 -105z m610 0 l0 -105 -100 0 -100 0 0 105 0 105
100 0 100 0 0 -105z m620 0 l0 -105 -105 0 -105 0 0 105 0 105 105 0 105 0 0
-105z m610 0 l0 -105 -105 0 -105 0 0 105 0 105 105 0 105 0 0 -105z m613 15
c-1 -47 -2 -93 -2 -102 -1 -16 -13 -18 -101 -18 l-100 0 0 105 0 106 103 -3
102 -3 -2 -85z m617 -15 l0 -105 -105 0 -105 0 0 105 0 105 105 0 105 0 0
-105z m620 0 l0 -105 -105 0 -105 0 0 105 0 105 105 0 105 0 0 -105z m-6764
-615 l-1 -100 -102 0 -103 0 0 100 0 100 103 0 104 0 -1 -100z m614 0 l0 -100
-105 0 -105 0 0 100 0 100 105 0 105 0 0 -100z m610 0 l0 -100 -100 0 -100 0
0 100 0 100 100 0 100 0 0 -100z m620 0 l0 -100 -105 0 -105 0 0 100 0 100
105 0 105 0 0 -100z m610 0 l0 -100 -100 0 -100 0 0 100 0 100 100 0 100 0 0
-100z m620 0 l0 -100 -105 0 -105 0 0 100 0 100 105 0 105 0 0 -100z m610 0
l0 -100 -100 0 -100 0 0 100 0 100 100 0 100 0 0 -100z m620 0 l0 -100 -105 0
-105 0 0 100 0 100 105 0 105 0 0 -100z m610 0 l0 -100 -105 0 -105 0 0 100 0
100 105 0 105 0 0 -100z m616 0 l-1 -100 -102 0 -103 0 0 100 0 100 103 0 104
0 -1 -100z m614 0 l0 -100 -105 0 -105 0 0 100 0 100 105 0 105 0 0 -100z
m-6147 -590 c0 -41 -2 -87 -2 -102 l-1 -28 -100 0 -100 0 0 105 0 106 103 -3
102 -3 -2 -75z m617 -25 l0 -105 -105 0 -105 0 0 105 0 105 105 0 105 0 0
-105z m610 0 l0 -105 -100 0 -100 0 0 105 0 105 100 0 100 0 0 -105z m620 0
l0 -105 -105 0 -105 0 0 105 0 105 105 0 105 0 0 -105z m610 0 l0 -105 -100 0
-100 0 0 105 0 105 100 0 100 0 0 -105z m620 0 l0 -105 -105 0 -105 0 0 105 0
105 105 0 105 0 0 -105z m610 0 l0 -105 -100 0 -100 0 0 105 0 105 100 0 100
0 0 -105z m620 0 l0 -105 -105 0 -105 0 0 105 0 105 105 0 105 0 0 -105z m610
0 l0 -105 -105 0 -105 0 0 105 0 105 105 0 105 0 0 -105z m613 25 c0 -41 -2
-87 -2 -102 l-1 -28 -100 0 -100 0 0 105 0 106 103 -3 102 -3 -2 -75z m77
-522 c0 -4 -4 -8 -9 -8 -6 0 -12 4 -15 8 -3 5 1 9 9 9 8 0 15 -4 15 -9z
m-5604 -100 c-2 -46 -5 -91 -5 -100 -1 -16 -13 -18 -101 -18 l-100 0 0 100 0
100 106 0 105 0 -5 -82z m614 -18 l0 -100 -105 0 -105 0 0 100 0 100 105 0
105 0 0 -100z m610 0 l0 -100 -100 0 -100 0 0 100 0 100 100 0 100 0 0 -100z
m620 0 l0 -100 -105 0 -105 0 0 100 0 100 105 0 105 0 0 -100z m610 0 l0 -100
-100 0 -100 0 0 100 0 100 100 0 100 0 0 -100z m620 0 l0 -100 -105 0 -105 0
0 100 0 100 105 0 105 0 0 -100z m610 0 l0 -100 -100 0 -100 0 0 100 0 100
100 0 100 0 0 -100z m620 0 l0 -100 -105 0 -105 0 0 100 0 100 105 0 105 0 0
-100z m610 0 l0 -100 -105 0 -105 0 0 100 0 100 105 0 105 0 0 -100z m744 -16
c3 -8 2 -12 -4 -9 -6 3 -10 10 -10 16 0 14 7 11 14 -7z m40 -6 c-3 -4 -9 -8
-15 -8 -5 0 -9 4 -9 8 0 5 7 9 15 9 8 0 12 -4 9 -9z m27 -41 c-10 -9 -11 -8
-5 6 3 10 9 15 12 12 3 -3 0 -11 -7 -18z m-5721 -484 c0 -21 -3 -68 -7 -105
l-6 -68 -98 0 -99 0 0 105 0 105 105 0 105 0 0 -37z m608 -65 l-3 -103 -100 0
-100 0 -3 103 -3 102 106 0 106 0 -3 -102z m612 -3 l0 -105 -100 0 -100 0 0
105 0 105 100 0 100 0 0 -105z m618 3 l-3 -103 -102 -3 -103 -3 0 106 0 105
105 0 106 0 -3 -102z m612 -3 l0 -105 -100 0 -100 0 0 105 0 105 100 0 100 0
0 -105z m618 3 l-3 -103 -102 -3 -103 -3 0 106 0 105 105 0 106 0 -3 -102z
m612 -3 l0 -105 -100 0 -100 0 0 105 0 105 100 0 100 0 0 -105z m618 3 l-3
-103 -102 -3 -103 -3 0 106 0 105 105 0 106 0 -3 -102z m612 -3 l0 -106 -102
3 -103 3 -3 103 -3 102 106 0 105 0 0 -105z m-4939 -515 l29 0 -4 -72 c-2 -40
-5 -85 -5 -100 l-1 -28 -100 0 -100 0 0 106 0 107 77 -7 c42 -3 89 -6 104 -6z
m607 0 l32 0 0 -100 0 -100 -105 0 -105 0 0 98 c0 54 3 102 8 106 4 5 36 5 72
2 36 -3 80 -6 98 -6z m610 0 l32 0 0 -100 0 -100 -100 0 -100 0 0 106 0 107
68 -6 c37 -4 82 -7 100 -7z m620 0 l32 0 0 -100 0 -100 -105 0 -105 0 0 98 c0
54 3 102 8 106 4 5 36 5 72 2 36 -3 80 -6 98 -6z m610 0 l32 0 0 -100 0 -100
-100 0 -100 0 0 106 0 107 68 -6 c37 -4 82 -7 100 -7z m624 0 l28 0 0 -100 0
-100 -105 0 -105 0 0 106 0 107 77 -7 c42 -3 89 -6 105 -6z m606 0 l32 0 0
-100 0 -100 -100 0 -100 0 0 106 0 107 68 -6 c37 -4 82 -7 100 -7z m624 0 l28
0 0 -100 0 -100 -105 0 -105 0 0 106 0 107 77 -7 c42 -3 89 -6 105 -6z m-4276
-706 c-3 -54 -7 -98 -8 -100 -2 -1 -47 -6 -101 -10 l-97 -7 0 107 0 106 106 0
105 0 -5 -96z m614 -3 l0 -99 -95 -7 c-51 -4 -99 -4 -105 0 -6 4 -10 47 -10
106 l0 99 105 0 105 0 0 -99z m610 -1 c0 -98 0 -100 -23 -100 -13 0 -58 -3
-100 -6 l-77 -7 0 107 0 106 100 0 100 0 0 -100z m620 1 l0 -99 -95 -7 c-51
-4 -99 -4 -105 0 -6 4 -10 47 -10 106 l0 99 105 0 105 0 0 -99z m610 -1 c0
-98 0 -100 -23 -100 -13 0 -58 -3 -100 -6 l-77 -7 0 107 0 106 100 0 100 0 0
-100z m620 1 l0 -98 -77 -7 c-42 -3 -89 -6 -105 -6 l-28 0 0 105 0 105 105 0
105 0 0 -99z m610 -1 c0 -98 0 -100 -23 -100 -13 0 -58 -3 -100 -6 l-77 -7 0
107 0 106 100 0 100 0 0 -100z m-3684 -590 c0 -41 -2 -87 -4 -102 l-4 -28 -99
0 -99 0 0 105 0 106 103 -3 102 -3 1 -75z m614 -25 l0 -105 -105 0 -105 0 0
98 c0 54 3 102 7 105 3 4 51 7 105 7 l98 0 0 -105z m610 0 l0 -105 -100 0
-100 0 0 105 0 105 100 0 100 0 0 -105z m618 -2 l3 -103 -106 0 -105 0 0 105
0 106 103 -3 102 -3 3 -102z m612 2 l0 -105 -100 0 -100 0 0 105 0 105 100 0
100 0 0 -105z m618 -2 l3 -103 -106 0 -105 0 0 105 0 106 103 -3 102 -3 3
-102z m-3073 -595 c-2 -46 -4 -91 -5 -100 0 -16 -12 -18 -100 -18 l-100 0 0
100 0 100 105 0 104 0 -4 -82z m615 -18 l0 -100 -105 0 -105 0 0 100 0 100
105 0 105 0 0 -100z m610 0 l0 -100 -100 0 -100 0 0 100 0 100 100 0 100 0 0
-100z m620 0 l0 -100 -105 0 -105 0 0 100 0 100 105 0 105 0 0 -100z m610 0
l0 -100 -100 0 -100 0 0 100 0 100 100 0 100 0 0 -100z m620 0 l0 -100 -105 0
-105 0 0 100 0 100 105 0 105 0 0 -100z m-3076 -570 c-1 -30 -2 -76 -3 -102
l-1 -48 -100 0 -100 0 0 105 0 106 103 -3 102 -3 -1 -55z m616 -45 l0 -105
-105 0 -105 0 0 105 0 105 105 0 105 0 0 -105z m610 0 l0 -105 -100 0 -100 0
0 105 0 105 100 0 100 0 0 -105z m620 0 l0 -105 -105 0 -105 0 0 105 0 105
105 0 105 0 0 -105z m610 0 l0 -105 -100 0 -100 0 0 105 0 105 100 0 100 0 0
-105z m-2454 -615 l-1 -100 -102 0 -103 0 0 100 0 100 104 0 103 0 -1 -100z
m614 0 l0 -100 -105 0 -105 0 0 100 0 100 105 0 105 0 0 -100z m610 0 l0 -100
-100 0 -100 0 0 100 0 100 100 0 100 0 0 -100z m620 0 l0 -100 -105 0 -105 0
0 100 0 100 105 0 105 0 0 -100z m-1846 -590 c-1 -41 -2 -87 -3 -102 l-1 -28
-100 0 -100 0 0 105 0 106 103 -3 102 -3 -1 -75z m616 -25 l0 -105 -105 0
-105 0 0 105 0 105 105 0 105 0 0 -105z m610 0 l0 -105 -100 0 -100 0 0 105 0
105 100 0 100 0 0 -105z m620 0 l0 -105 -105 0 -105 0 0 105 0 105 105 0 105
0 0 -105z m-1868 -515 l28 0 -4 -72 c-2 -40 -4 -85 -5 -100 l-1 -28 -100 0
-100 0 0 106 0 107 77 -7 c42 -3 89 -6 105 -6z m606 0 l32 0 0 -100 0 -100
-105 0 -105 0 0 98 c0 54 3 102 8 106 4 5 36 5 72 2 36 -3 80 -6 98 -6z m610
0 l32 0 0 -100 0 -100 -100 0 -100 0 0 106 0 107 68 -6 c37 -4 82 -7 100 -7z
m-1191 -707 c-4 -54 -7 -101 -7 -105 0 -5 -45 -8 -100 -8 l-100 0 0 105 0 105
106 0 107 0 -6 -97z m611 -5 l-3 -103 -100 0 -100 0 -3 103 -3 102 106 0 106
0 -3 -102z"/>
<path d="M16119 15809 c-187 -123 -584 -422 -979 -739 -260 -208 -327 -266
-512 -438 l-157 -146 101 -106 c55 -58 128 -131 162 -163 374 -354 1075 -870
1388 -1022 114 -56 124 -56 132 -7 28 172 45 1395 27 1992 -15 510 -29 690
-56 690 -7 0 -55 -28 -106 -61z"/>
<path d="M1159 31908 c-8 -28 -6 -48 6 -58 9 -7 18 -10 22 -6 3 3 0 6 -8 6
-12 0 -11 2 1 11 13 9 12 10 -3 5 -13 -4 -17 -1 -15 12 2 9 8 20 13 24 6 5 5
8 -2 8 -7 0 -13 -1 -14 -2z"/>
<path d="M1107 31864 c-3 -3 -2 -16 3 -29 5 -13 6 -26 3 -29 -4 -3 1 -6 10 -6
17 0 14 21 -7 49 -9 12 -7 13 7 8 11 -4 16 -3 12 3 -7 11 -19 13 -28 4z"/>
<path d="M1220 31850 c-23 -7 -23 -8 -3 -9 12 -1 25 4 28 9 3 6 5 10 3 9 -2
-1 -14 -5 -28 -9z"/>
<path d="M1084 31842 c4 -7 3 -12 -3 -12 -6 0 -15 -9 -21 -20 -9 -17 -8 -20 9
-17 11 2 24 7 28 12 5 4 3 5 -4 1 -6 -3 -14 -2 -18 4 -3 5 1 10 9 10 19 0 21
16 4 26 -7 4 -8 3 -4 -4z"/>
<path d="M1355 31840 c3 -5 8 -10 11 -10 2 0 4 5 4 10 0 6 -5 10 -11 10 -5 0
-7 -4 -4 -10z"/>
<path d="M1190 31801 c0 -5 7 -12 16 -15 14 -5 15 -4 4 9 -14 17 -20 19 -20 6z"/>
<path d="M1267 31783 c-2 -13 0 -26 6 -30 5 -3 7 -2 4 4 -4 5 2 19 13 31 19
20 19 21 1 19 -12 -1 -21 -11 -24 -24z"/>
<path d="M1360 31790 c6 -11 13 -20 16 -20 2 0 0 9 -6 20 -6 11 -13 20 -16 20
-2 0 0 -9 6 -20z"/>
<path d="M1061 31781 c-11 -8 -21 -52 -10 -45 5 3 9 13 10 22 0 10 4 7 10 -10
6 -14 17 -29 25 -32 9 -3 12 -1 9 4 -3 6 -2 10 3 10 5 0 15 -13 22 -30 12 -29
24 -32 61 -16 9 4 16 13 16 21 0 21 -15 19 -20 -2 -3 -10 -4 2 -2 25 3 35 1
43 -10 38 -9 -3 -12 0 -8 10 3 9 -1 14 -13 13 -11 0 -14 -3 -7 -5 7 -3 9 -12
6 -20 -3 -8 0 -14 7 -14 12 0 8 -56 -6 -68 -4 -4 -5 0 -2 8 3 8 -2 21 -11 28
-14 12 -14 13 2 8 10 -3 16 -2 13 3 -3 4 -19 8 -37 9 -37 1 -53 12 -18 12 19
0 21 2 9 10 -8 5 -10 10 -4 10 5 0 15 -5 22 -12 13 -13 16 0 4 18 -7 11 -56
14 -71 5z"/>
<path d="M1226 31775 c-18 -14 -18 -14 1 -12 11 0 20 7 20 14 0 7 -1 13 -1 13
-1 0 -9 -7 -20 -15z"/>
<path d="M1320 31776 c0 -2 8 -10 18 -17 15 -13 16 -12 3 4 -13 16 -21 21 -21
13z"/>
<path d="M1228 31718 c-9 -5 -6 -7 9 -5 12 2 25 6 28 8 8 9 -23 6 -37 -3z"/>
<path d="M1106 31672 c-3 -5 1 -9 9 -9 8 0 12 4 9 9 -3 4 -7 8 -9 8 -2 0 -6
-4 -9 -8z"/>
<path d="M36971 6713 c-7 -8 -10 -17 -7 -20 3 -4 6 -3 6 2 0 4 8 1 17 -6 11
-10 14 -10 9 -1 -4 6 -3 12 2 12 5 0 9 6 9 13 0 18 -19 17 -36 0z"/>
<path d="M37058 6717 c7 -8 7 -18 2 -27 -5 -8 -6 -18 -4 -22 3 -5 -2 -11 -10
-14 -9 -3 -16 -10 -16 -15 0 -4 6 -6 14 -3 8 3 17 0 21 -6 3 -6 3 -9 -2 -8
-10 4 -63 -37 -63 -47 0 -5 9 0 20 10 16 14 22 15 35 5 8 -7 12 -17 8 -24 -4
-7 -1 -6 9 1 8 7 17 11 19 9 2 -2 5 6 5 19 2 21 0 23 -13 10 -8 -9 -19 -12
-25 -9 -6 4 -6 9 3 14 7 5 14 16 15 24 1 9 -2 14 -7 10 -5 -3 -9 0 -9 5 0 6 5
11 11 11 5 0 7 5 4 10 -4 6 -3 10 2 9 30 -5 40 2 35 26 -5 28 -21 35 -18 9 0
-9 -5 -19 -12 -21 -7 -3 -12 -1 -11 4 3 19 -2 33 -12 33 -8 0 -8 -4 -1 -13z"/>
<path d="M37125 6693 c3 -13 2 -23 -3 -23 -5 0 -9 -6 -9 -14 0 -8 6 -12 14 -9
10 4 10 -1 -2 -23 -18 -35 -10 -48 18 -32 12 7 24 12 28 11 3 -1 5 9 5 23 0
13 -4 24 -8 24 -4 0 -8 -7 -8 -17 0 -25 -13 -6 -14 20 -1 19 3 23 24 20 22 -4
23 -3 7 7 -10 6 -14 16 -10 23 5 9 3 9 -8 0 -12 -10 -18 -10 -28 0 -11 10 -12
8 -6 -10z m18 -77 c3 -8 0 -17 -7 -19 -10 -4 -12 1 -9 14 6 23 9 24 16 5z"/>
<path d="M36963 6667 c0 -7 8 -13 18 -13 13 0 15 3 7 13 -6 7 -14 13 -18 13
-3 0 -7 -6 -7 -13z"/>
<path d="M37196 6655 c-3 -8 -3 -15 0 -15 3 0 12 7 20 15 13 13 13 15 1 15 -8
0 -17 -7 -21 -15z"/>
<path d="M37091 6644 c0 -11 3 -14 6 -6 3 7 2 16 -1 19 -3 4 -6 -2 -5 -13z"/>
<path d="M36978 6633 c6 -2 18 -2 25 0 6 3 1 5 -13 5 -14 0 -19 -2 -12 -5z"/>
<path d="M37193 6615 c0 -8 4 -15 9 -15 4 0 8 7 8 15 0 8 -4 15 -8 15 -5 0 -9
-7 -9 -15z"/>
<path d="M37220 6604 c0 -8 5 -12 10 -9 6 3 10 10 10 16 0 5 -4 9 -10 9 -5 0
-10 -7 -10 -16z"/>
<path d="M36931 6567 c-13 -21 -12 -21 5 -5 10 10 16 20 13 22 -3 3 -11 -5
-18 -17z"/>
<path d="M37141 6573 c-1 -7 -8 -10 -16 -7 -8 4 -15 1 -15 -6 0 -7 8 -10 20
-7 11 3 23 0 27 -5 3 -6 1 -8 -5 -4 -6 3 -13 2 -17 -4 -3 -5 -3 -10 2 -11 4 0
16 -2 26 -4 11 -2 16 -1 14 2 -3 3 -2 15 3 27 6 17 5 23 -5 23 -8 0 -12 -4 -9
-9 3 -4 1 -8 -5 -8 -5 0 -12 6 -14 13 -4 9 -6 9 -6 0z"/>
<path d="M36996 6551 c-4 -5 -2 -12 3 -15 5 -4 12 -2 15 3 4 5 2 12 -3 15 -5
4 -12 2 -15 -3z"/>
<path d="M37068 6526 c-22 -16 -23 -23 -3 -23 8 0 12 4 9 8 -2 4 4 12 13 18
10 6 14 10 8 10 -5 0 -18 -6 -27 -13z"/>
<path d="M37110 6511 c0 -6 4 -13 10 -16 6 -3 7 1 4 9 -7 18 -14 21 -14 7z"/>
<path d="M37026 6458 c3 -5 10 -6 15 -3 13 9 11 12 -6 12 -8 0 -12 -4 -9 -9z"/>
</g>
</svg>
