<?xml version="1.0" standalone="no"?>
<!DOCTYPE svg PUBLIC "-//W3C//DTD SVG 20010904//EN"
 "http://www.w3.org/TR/2001/REC-SVG-20010904/DTD/svg10.dtd">
<svg version="1.0" xmlns="http://www.w3.org/2000/svg"
 width="64.000000pt" height="64.000000pt" viewBox="0 0 64.000000 64.000000"
 preserveAspectRatio="xMidYMid meet">
<metadata>
Created by potrace 1.14, written by Peter Selinger 2001-2017
</metadata>
<g transform="translate(0.000000,64.000000) scale(0.100000,-0.100000)"
fill="#000000" stroke="none">
<path d="M138 349 c4 -56 3 -61 -14 -57 -15 3 -18 11 -16 40 4 57 -14 53 -26
-5 -11 -53 -1 -87 17 -58 7 11 13 9 30 -8 12 -12 26 -19 31 -16 14 9 12 139
-2 153 -21 21 -24 13 -20 -49z"/>
<path d="M470 402 c0 -6 -12 -13 -27 -17 -27 -5 -28 -9 -31 -70 -3 -72 13 -96
23 -35 8 45 40 58 42 18 0 -13 -1 -17 -4 -10 -9 23 -23 12 -23 -19 0 -18 4
-28 10 -24 6 4 18 1 26 -6 13 -11 18 -10 26 4 7 13 13 15 28 7 10 -5 20 -10
22 -10 7 0 -1 113 -9 120 -4 4 -17 10 -28 13 -12 3 -7 5 15 6 44 1 28 17 -27
26 -27 4 -43 3 -43 -3z m10 -42 c0 -5 -6 -10 -12 -10 -9 0 -8 -4 2 -10 12 -8
11 -10 -7 -10 -16 0 -23 6 -23 20 0 13 7 20 20 20 11 0 20 -4 20 -10z m50 -10
c0 -5 -5 -10 -11 -10 -5 0 -7 5 -4 10 3 6 8 10 11 10 2 0 4 -4 4 -10z m9 -71
c-16 -10 -23 -4 -14 10 3 6 11 8 17 5 6 -4 5 -9 -3 -15z"/>
<path d="M204 361 c3 -18 6 -49 6 -67 0 -25 4 -34 16 -34 14 0 16 9 12 51 -3
30 -12 57 -23 67 -17 16 -17 15 -11 -17z"/>
</g>
</svg>
