<svg width="100" height="168" viewBox="0 0 100 168" fill="none" xmlns="http://www.w3.org/2000/svg">
<path d="M36 85V71L64 55V69L36 85Z" fill="black"/>
<path d="M76 62V48L82.5 44.5L76 41H64V20L100 41V44.5V48L76 62Z" fill="black"/>
<path d="M64 83L64 97L36 113L36 99L64 83Z" fill="black"/>
<path d="M24 106L24 120L17.5 123.5L24 127H36V148L0 127V123.5V120L24 106Z" fill="black"/>
<path d="M76 41V48V150L88 144V69L100 62V150L76 164L70.5 168L64 165V48V41H76Z" fill="black"/>
<path d="M24 127V120L24 18L12 24L12 99L0 106L0 18L24 4L29.5 0L36 3L36 120V127H24Z" fill="black"/>
</svg>
