<svg width="400" height="400" viewBox="0 0 400 400" fill="none" xmlns="http://www.w3.org/2000/svg">
<rect width="400" height="400" fill="black"/>
<path d="M172 202V174L228 142V170L172 202Z" fill="white"/>
<path d="M252 156V128L265 121L252 114H228V72L300 114V121V128L252 156Z" fill="white"/>
<path d="M228 198L228 226L172 258V230L228 198Z" fill="white"/>
<path d="M148 244V272L135 279L148 286H172V328L100 286V279V272L148 244Z" fill="white"/>
<path d="M252 114V128V332L276 320V170L300 156V332L252 360L241 368L228 362V128V114H252Z" fill="white"/>
<path d="M148 286V272L148 68L124 80L124 230L100 244L100 68L148 40L159 32L172 38L172 272V286H148Z" fill="white"/>
</svg>
